M48
; DRILL file {KiCad (6.0.7-1)-1} date Saturday, December 31, 2022 at 01:50:18 PM
; FORMAT={-:-/ absolute / metric / decimal}
; #@! TF.CreationDate,2022-12-31T13:50:18-08:00
; #@! TF.GenerationSoftware,Kicad,Pcbnew,(6.0.7-1)-1
; #@! TF.FileFunction,NonPlated,1,2,NPTH
FMAT,2
METRIC
; #@! TA.AperFunction,NonPlated,NPTH,ComponentDrill
T1C0.800
; #@! TA.AperFunction,NonPlated,NPTH,ComponentDrill
T2C1.702
; #@! TA.AperFunction,NonPlated,NPTH,ComponentDrill
T3C3.429
%
G90
G05
T1
X178.4Y-92.4
X178.412Y-90.2
X185.4Y-92.4
X185.412Y-90.2
T2
X58.0Y-52.0
X58.0Y-63.0
X70.5Y-40.0
X70.5Y-57.5
X70.5Y-75.0
X81.5Y-40.0
X81.5Y-57.5
X81.5Y-75.0
X89.0Y-40.0
X89.0Y-57.5
X89.0Y-75.0
X100.0Y-40.0
X100.0Y-57.5
X100.0Y-75.0
X107.5Y-40.0
X107.5Y-57.5
X107.5Y-75.0
X118.5Y-40.0
X118.5Y-57.5
X118.5Y-75.0
X126.0Y-40.0
X126.0Y-57.5
X126.0Y-75.0
X131.5Y-92.0
X131.5Y-103.0
X137.0Y-40.0
X137.0Y-57.5
X137.0Y-75.0
X144.5Y-40.0
X144.5Y-57.5
X144.5Y-75.0
X151.819Y-106.659
X155.5Y-40.0
X155.5Y-57.5
X155.5Y-75.0
X155.939Y-96.46
X169.109Y-116.885
X176.18Y-108.458
T3
X58.0Y-57.5
X76.0Y-40.0
X76.0Y-57.5
X76.0Y-75.0
X94.5Y-40.0
X94.5Y-57.5
X94.5Y-75.0
X113.0Y-40.0
X113.0Y-57.5
X113.0Y-75.0
X131.5Y-40.0
X131.5Y-57.5
X131.5Y-75.0
X131.5Y-97.5
X150.0Y-40.0
X150.0Y-57.5
X150.0Y-75.0
X153.879Y-101.559
X172.645Y-112.671
T0
M30
