M48
; DRILL file {KiCad (6.0.7-1)-1} date Thursday, October 06, 2022 at 10:38:28 PM
; FORMAT={-:-/ absolute / inch / decimal}
; #@! TF.CreationDate,2022-10-06T22:38:28-07:00
; #@! TF.GenerationSoftware,Kicad,Pcbnew,(6.0.7-1)-1
; #@! TF.FileFunction,Plated,1,2,PTH
FMAT,2
INCH
; #@! TA.AperFunction,Plated,PTH,ViaDrill
T1C0.0157
; #@! TA.AperFunction,Plated,PTH,ComponentDrill
T2C0.0320
; #@! TA.AperFunction,Plated,PTH,ComponentDrill
T3C0.0430
; #@! TA.AperFunction,Plated,PTH,ComponentDrill
T4C0.0598
%
G90
G05
T1
X2.7402Y-1.8732
X2.9411Y-1.7939
X3.1024Y-1.4331
X3.2208Y-2.1272
X3.7528Y-3.0548
X4.4827Y-3.0515
X5.2165Y-3.0447
X5.946Y-3.0451
T2
X3.0394Y-2.3249
X3.1181Y-2.3249
T3
X2.2157Y-1.4236
X2.2157Y-1.5236
X2.2157Y-1.6236
X2.2157Y-1.7236
X2.2157Y-1.8236
X2.2157Y-1.9236
X2.2157Y-2.0236
X2.2157Y-2.1236
X2.2157Y-2.2236
X2.2157Y-2.3236
X2.2157Y-2.4236
X2.2157Y-2.5236
X2.5157Y-2.3236
X2.6157Y-2.3236
X2.7157Y-2.3236
X2.8157Y-1.4236
X2.8157Y-1.5236
X2.8157Y-1.6236
X2.8157Y-1.7236
X2.8157Y-1.8236
X2.8157Y-1.9236
X2.8157Y-2.0236
X2.8157Y-2.1236
X2.8157Y-2.2236
X2.8157Y-2.3236
X2.8157Y-2.4236
X2.8157Y-2.5236
T4
X2.4891Y-4.3817
X2.5523Y-4.5857
X3.2564Y-4.084
X3.2594Y-3.8705
X3.4252Y-1.7244
X3.4252Y-2.4134
X3.4252Y-3.1024
X3.622Y-1.8071
X3.622Y-2.4961
X3.622Y-3.185
X4.1181Y-3.8386
X4.1535Y-1.7244
X4.1535Y-2.4134
X4.1535Y-3.1024
X4.2008Y-3.6417
X4.3504Y-1.8071
X4.3504Y-2.4961
X4.3504Y-3.185
X4.8819Y-1.7244
X4.8819Y-2.4134
X4.8819Y-3.1024
X5.0787Y-1.8071
X5.0787Y-2.4961
X5.0787Y-3.185
X5.6102Y-1.7244
X5.6102Y-2.4134
X5.6102Y-3.1024
X5.8071Y-1.8071
X5.8071Y-2.4961
X5.8071Y-3.185
X6.3386Y-1.7244
X6.3386Y-2.4134
X6.3386Y-3.1024
X6.5354Y-1.8071
X6.5354Y-2.4961
X6.5354Y-3.185
X7.0118Y-2.2638
X7.0945Y-2.0669
T0
M30
