M48
; DRILL file {KiCad (6.0.7-1)-1} date Monday, September 19, 2022 at 09:48:10 PM
; FORMAT={-:-/ absolute / inch / decimal}
; #@! TF.CreationDate,2022-09-19T21:48:10-07:00
; #@! TF.GenerationSoftware,Kicad,Pcbnew,(6.0.7-1)-1
; #@! TF.FileFunction,NonPlated,1,2,NPTH
FMAT,2
INCH
; #@! TA.AperFunction,NonPlated,NPTH,ComponentDrill
T1C0.0354
; #@! TA.AperFunction,NonPlated,NPTH,ComponentDrill
T2C0.0670
; #@! TA.AperFunction,NonPlated,NPTH,ComponentDrill
T3C0.1350
%
G90
G05
T1
X3.0197Y-1.3321
X3.1378Y-1.3321
T2
X2.5911Y-4.2705
X2.8695Y-4.6022
X3.3907Y-3.7962
X3.4055Y-1.5748
X3.4055Y-2.2638
X3.4055Y-2.9528
X3.5529Y-4.1977
X3.8386Y-1.5748
X3.8386Y-2.2638
X3.8386Y-2.9528
X4.1339Y-1.5748
X4.1339Y-2.2638
X4.1339Y-2.9528
X4.3504Y-3.622
X4.3504Y-4.0551
X4.5669Y-1.5748
X4.5669Y-2.2638
X4.5669Y-2.9528
X4.8622Y-1.5748
X4.8622Y-2.2638
X4.8622Y-2.9528
X5.2953Y-1.5748
X5.2953Y-2.2638
X5.2953Y-2.9528
X5.5906Y-1.5748
X5.5906Y-2.2638
X5.5906Y-2.9528
X6.0236Y-1.5748
X6.0236Y-2.2638
X6.0236Y-2.9528
X6.3189Y-1.5748
X6.3189Y-2.2638
X6.3189Y-2.9528
X6.752Y-1.5748
X6.752Y-2.2638
X6.752Y-2.9528
X7.2441Y-2.0472
X7.2441Y-2.4803
T3
X2.7303Y-4.4363
X3.4718Y-3.997
X3.622Y-1.5748
X3.622Y-2.2638
X3.622Y-2.9528
X4.3504Y-1.5748
X4.3504Y-2.2638
X4.3504Y-2.9528
X4.3504Y-3.8386
X5.0787Y-1.5748
X5.0787Y-2.2638
X5.0787Y-2.9528
X5.8071Y-1.5748
X5.8071Y-2.2638
X5.8071Y-2.9528
X6.5354Y-1.5748
X6.5354Y-2.2638
X6.5354Y-2.9528
X7.2441Y-2.2638
T0
M30
