%TF.GenerationSoftware,KiCad,Pcbnew,(6.0.7-1)-1*%
%TF.CreationDate,2022-09-19T22:00:20-07:00*%
%TF.ProjectId,karn-right,6b61726e-2d72-4696-9768-742e6b696361,rev?*%
%TF.SameCoordinates,Original*%
%TF.FileFunction,Paste,Top*%
%TF.FilePolarity,Positive*%
%FSLAX46Y46*%
G04 Gerber Fmt 4.6, Leading zero omitted, Abs format (unit mm)*
G04 Created by KiCad (PCBNEW (6.0.7-1)-1) date 2022-09-19 22:00:20*
%MOMM*%
%LPD*%
G01*
G04 APERTURE LIST*
%ADD10R,1.256900X1.041400*%
%ADD11R,0.355600X0.504800*%
%ADD12R,0.504800X0.355600*%
%ADD13R,1.600000X0.850000*%
%ADD14R,0.700000X1.500000*%
%ADD15R,1.000000X0.800000*%
G04 APERTURE END LIST*
D10*
%TO.C,RSW1*%
X81027149Y-38200000D03*
X81027149Y-41200000D03*
X75172851Y-41200000D03*
X75172851Y-38200000D03*
%TD*%
D11*
%TO.C,D24*%
X138250000Y-62298500D03*
X138250000Y-60701500D03*
%TD*%
%TO.C,D22*%
X101250000Y-62298500D03*
X101250000Y-60701500D03*
%TD*%
D12*
%TO.C,D41*%
X62201500Y-106000000D03*
X63798500Y-106000000D03*
%TD*%
D11*
%TO.C,D11*%
X82750000Y-44798500D03*
X82750000Y-43201500D03*
%TD*%
%TO.C,D31*%
X82750000Y-79798500D03*
X82750000Y-78201500D03*
%TD*%
%TO.C,D13*%
X119750000Y-44798500D03*
X119750000Y-43201500D03*
%TD*%
%TO.C,D33*%
X119750000Y-79798500D03*
X119750000Y-78201500D03*
%TD*%
%TO.C,D14*%
X138250000Y-44798500D03*
X138250000Y-43201500D03*
%TD*%
%TO.C,D21*%
X82750000Y-62298500D03*
X82750000Y-60701500D03*
%TD*%
%TO.C,D32*%
X101250000Y-79798500D03*
X101250000Y-78201500D03*
%TD*%
%TO.C,D23*%
X119750000Y-62298500D03*
X119750000Y-60701500D03*
%TD*%
%TO.C,D12*%
X101250000Y-44798500D03*
X101250000Y-43201500D03*
%TD*%
%TO.C,D26*%
X175250000Y-62298500D03*
X175250000Y-60701500D03*
%TD*%
%TO.C,D34*%
X138250000Y-79798500D03*
X138250000Y-78201500D03*
%TD*%
%TO.C,D35*%
X156750000Y-79798500D03*
X156750000Y-78201500D03*
%TD*%
%TO.C,D15*%
X156750000Y-44798500D03*
X156750000Y-43201500D03*
%TD*%
D12*
%TO.C,D42*%
X81701500Y-94000000D03*
X83298500Y-94000000D03*
%TD*%
D11*
%TO.C,D25*%
X156750000Y-62298500D03*
X156750000Y-60701500D03*
%TD*%
D12*
%TO.C,D43*%
X105701500Y-88000000D03*
X107298500Y-88000000D03*
%TD*%
D13*
%TO.C,L3*%
X76450000Y-45587847D03*
X76450000Y-43837847D03*
X79950000Y-43837847D03*
X79950000Y-45587847D03*
%TD*%
D14*
%TO.C,SW_POWER1*%
X75950000Y-35594914D03*
X77450000Y-35594914D03*
X80450000Y-35594914D03*
D15*
X74550000Y-32734914D03*
X81850000Y-34944914D03*
X74550000Y-34944914D03*
X81850000Y-32734914D03*
%TD*%
D13*
%TO.C,L2*%
X76450000Y-50653294D03*
X76450000Y-48903294D03*
X79950000Y-48903294D03*
X79950000Y-50653294D03*
%TD*%
%TO.C,L1*%
X76450000Y-55762036D03*
X76450000Y-54012036D03*
X79950000Y-54012036D03*
X79950000Y-55762036D03*
%TD*%
M02*
