%TF.GenerationSoftware,KiCad,Pcbnew,(6.0.7-1)-1*%
%TF.CreationDate,2022-10-06T22:38:23-07:00*%
%TF.ProjectId,karn-right,6b61726e-2d72-4696-9768-742e6b696361,rev?*%
%TF.SameCoordinates,Original*%
%TF.FileFunction,Soldermask,Bot*%
%TF.FilePolarity,Negative*%
%FSLAX46Y46*%
G04 Gerber Fmt 4.6, Leading zero omitted, Abs format (unit mm)*
G04 Created by KiCad (PCBNEW (6.0.7-1)-1) date 2022-10-06 22:38:23*
%MOMM*%
%LPD*%
G01*
G04 APERTURE LIST*
%ADD10C,1.701800*%
%ADD11C,3.429000*%
%ADD12C,2.282000*%
%ADD13C,1.320800*%
%ADD14C,0.900000*%
%ADD15C,1.752600*%
G04 APERTURE END LIST*
D10*
%TO.C,SW22*%
X105000000Y-57500000D03*
X116000000Y-57500000D03*
D11*
X110500000Y-57500000D03*
D12*
X110500000Y-63400000D03*
X105500000Y-61300000D03*
%TD*%
D10*
%TO.C,SW15*%
X160500000Y-40000000D03*
D11*
X166000000Y-40000000D03*
D10*
X171500000Y-40000000D03*
D12*
X166000000Y-45900000D03*
X161000000Y-43800000D03*
%TD*%
D10*
%TO.C,SW13*%
X134500000Y-40000000D03*
D11*
X129000000Y-40000000D03*
D10*
X123500000Y-40000000D03*
D12*
X129000000Y-45900000D03*
X124000000Y-43800000D03*
%TD*%
D11*
%TO.C,SW42*%
X88184068Y-101523050D03*
D10*
X90244404Y-106622561D03*
X86123732Y-96423539D03*
D12*
X82713683Y-103733229D03*
X82787736Y-98310636D03*
%TD*%
D10*
%TO.C,SW31*%
X86500000Y-75000000D03*
D11*
X92000000Y-75000000D03*
D10*
X97500000Y-75000000D03*
D12*
X92000000Y-80900000D03*
X87000000Y-78800000D03*
%TD*%
D13*
%TO.C,J1*%
X77199999Y-59052700D03*
X79200001Y-59052700D03*
%TD*%
D10*
%TO.C,SW26*%
X184000000Y-52000000D03*
X184000000Y-63000000D03*
D11*
X184000000Y-57500000D03*
D12*
X178100000Y-57500000D03*
X180200000Y-52500000D03*
%TD*%
D14*
%TO.C,SW_POWER1*%
X79700000Y-33834914D03*
X76700000Y-33834914D03*
%TD*%
D10*
%TO.C,SW33*%
X123500000Y-75000000D03*
X134500000Y-75000000D03*
D11*
X129000000Y-75000000D03*
D12*
X129000000Y-80900000D03*
X124000000Y-78800000D03*
%TD*%
D11*
%TO.C,SW25*%
X166000000Y-57500000D03*
D10*
X171500000Y-57500000D03*
X160500000Y-57500000D03*
D12*
X166000000Y-63400000D03*
X161000000Y-61300000D03*
%TD*%
D10*
%TO.C,SW32*%
X116000000Y-75000000D03*
X105000000Y-75000000D03*
D11*
X110500000Y-75000000D03*
D12*
X110500000Y-80900000D03*
X105500000Y-78800000D03*
%TD*%
D10*
%TO.C,SW21*%
X97500000Y-57500000D03*
X86500000Y-57500000D03*
D11*
X92000000Y-57500000D03*
D12*
X92000000Y-63400000D03*
X87000000Y-61300000D03*
%TD*%
D11*
%TO.C,SW41*%
X69349160Y-112683234D03*
D10*
X65813828Y-108469990D03*
X72884492Y-116896478D03*
D12*
X64829498Y-116475681D03*
X63224253Y-111295605D03*
%TD*%
D10*
%TO.C,SW12*%
X116000000Y-40000000D03*
X105000000Y-40000000D03*
D11*
X110500000Y-40000000D03*
D12*
X110500000Y-45900000D03*
X105500000Y-43800000D03*
%TD*%
D11*
%TO.C,SW35*%
X166000000Y-75000000D03*
D10*
X171500000Y-75000000D03*
X160500000Y-75000000D03*
D12*
X166000000Y-80900000D03*
X161000000Y-78800000D03*
%TD*%
D11*
%TO.C,SW11*%
X92000000Y-40000000D03*
D10*
X86500000Y-40000000D03*
X97500000Y-40000000D03*
D12*
X92000000Y-45900000D03*
X87000000Y-43800000D03*
%TD*%
D10*
%TO.C,SW23*%
X134500000Y-57500000D03*
X123500000Y-57500000D03*
D11*
X129000000Y-57500000D03*
D12*
X129000000Y-63400000D03*
X124000000Y-61300000D03*
%TD*%
D10*
%TO.C,SW34*%
X153000000Y-75000000D03*
X142000000Y-75000000D03*
D11*
X147500000Y-75000000D03*
D12*
X147500000Y-80900000D03*
X142500000Y-78800000D03*
%TD*%
D11*
%TO.C,SW43*%
X110500000Y-97500000D03*
D10*
X110500000Y-92000000D03*
X110500000Y-103000000D03*
D12*
X104600000Y-97500000D03*
X106700000Y-92500000D03*
%TD*%
D10*
%TO.C,SW14*%
X142000000Y-40000000D03*
D11*
X147500000Y-40000000D03*
D10*
X153000000Y-40000000D03*
D12*
X147500000Y-45900000D03*
X142500000Y-43800000D03*
%TD*%
D10*
%TO.C,SW24*%
X142000000Y-57500000D03*
D11*
X147500000Y-57500000D03*
D10*
X153000000Y-57500000D03*
D12*
X147500000Y-63400000D03*
X142500000Y-61300000D03*
%TD*%
D15*
%TO.C,U1*%
X71520000Y-36159750D03*
X71520000Y-38699750D03*
X71520000Y-41239750D03*
X71520000Y-43779750D03*
X71520000Y-46319750D03*
X71520000Y-48859750D03*
X71520000Y-51399750D03*
X71520000Y-53939750D03*
X71520000Y-56479750D03*
X71520000Y-59019750D03*
X71520000Y-61559750D03*
X71520000Y-64099750D03*
X56280000Y-64099750D03*
X56280000Y-61559750D03*
X56280000Y-59019750D03*
X56280000Y-56479750D03*
X56280000Y-53939750D03*
X56280000Y-51399750D03*
X56280000Y-48859750D03*
X56280000Y-46319750D03*
X56280000Y-43779750D03*
X56280000Y-41239750D03*
X56280000Y-38699750D03*
X56280000Y-36159750D03*
X68980000Y-59019750D03*
X66440000Y-59019750D03*
X63900000Y-59019750D03*
%TD*%
M02*
