%TF.GenerationSoftware,KiCad,Pcbnew,(6.0.7-1)-1*%
%TF.CreationDate,2022-09-19T22:00:20-07:00*%
%TF.ProjectId,karn-right,6b61726e-2d72-4696-9768-742e6b696361,rev?*%
%TF.SameCoordinates,Original*%
%TF.FileFunction,Soldermask,Top*%
%TF.FilePolarity,Negative*%
%FSLAX46Y46*%
G04 Gerber Fmt 4.6, Leading zero omitted, Abs format (unit mm)*
G04 Created by KiCad (PCBNEW (6.0.7-1)-1) date 2022-09-19 22:00:20*
%MOMM*%
%LPD*%
G01*
G04 APERTURE LIST*
%ADD10C,1.320800*%
%ADD11R,1.256900X1.041400*%
%ADD12C,1.701800*%
%ADD13C,3.429000*%
%ADD14C,2.282000*%
%ADD15R,0.355600X0.504800*%
%ADD16R,0.504800X0.355600*%
%ADD17R,1.600000X0.850000*%
%ADD18R,0.700000X1.500000*%
%ADD19R,1.000000X0.800000*%
%ADD20C,0.900000*%
%ADD21C,1.752600*%
G04 APERTURE END LIST*
D10*
%TO.C,J1*%
X79200001Y-59052700D03*
X77199999Y-59052700D03*
%TD*%
D11*
%TO.C,RSW1*%
X81027149Y-38200000D03*
X81027149Y-41200000D03*
X75172851Y-41200000D03*
X75172851Y-38200000D03*
%TD*%
D12*
%TO.C,SW22*%
X105000000Y-57500000D03*
D13*
X110500000Y-57500000D03*
D12*
X116000000Y-57500000D03*
D14*
X110500000Y-63400000D03*
X105500000Y-61300000D03*
%TD*%
D12*
%TO.C,SW15*%
X160500000Y-40000000D03*
D13*
X166000000Y-40000000D03*
D12*
X171500000Y-40000000D03*
D14*
X166000000Y-45900000D03*
X161000000Y-43800000D03*
%TD*%
D12*
%TO.C,SW13*%
X123500000Y-40000000D03*
D13*
X129000000Y-40000000D03*
D12*
X134500000Y-40000000D03*
D14*
X129000000Y-45900000D03*
X124000000Y-43800000D03*
%TD*%
D13*
%TO.C,SW42*%
X88184068Y-101523050D03*
D12*
X86123732Y-96423539D03*
X90244404Y-106622561D03*
D14*
X82713683Y-103733229D03*
X82787736Y-98310636D03*
%TD*%
D12*
%TO.C,SW31*%
X86500000Y-75000000D03*
D13*
X92000000Y-75000000D03*
D12*
X97500000Y-75000000D03*
D14*
X92000000Y-80900000D03*
X87000000Y-78800000D03*
%TD*%
D13*
%TO.C,SW26*%
X184000000Y-57500000D03*
D12*
X184000000Y-52000000D03*
X184000000Y-63000000D03*
D14*
X178100000Y-57500000D03*
X180200000Y-52500000D03*
%TD*%
D12*
%TO.C,SW33*%
X123500000Y-75000000D03*
D13*
X129000000Y-75000000D03*
D12*
X134500000Y-75000000D03*
D14*
X129000000Y-80900000D03*
X124000000Y-78800000D03*
%TD*%
D12*
%TO.C,SW25*%
X160500000Y-57500000D03*
D13*
X166000000Y-57500000D03*
D12*
X171500000Y-57500000D03*
D14*
X166000000Y-63400000D03*
X161000000Y-61300000D03*
%TD*%
D12*
%TO.C,SW32*%
X105000000Y-75000000D03*
D13*
X110500000Y-75000000D03*
D12*
X116000000Y-75000000D03*
D14*
X110500000Y-80900000D03*
X105500000Y-78800000D03*
%TD*%
D12*
%TO.C,SW21*%
X86500000Y-57500000D03*
D13*
X92000000Y-57500000D03*
D12*
X97500000Y-57500000D03*
D14*
X92000000Y-63400000D03*
X87000000Y-61300000D03*
%TD*%
D13*
%TO.C,SW41*%
X69349160Y-112683234D03*
D12*
X65813828Y-108469990D03*
X72884492Y-116896478D03*
D14*
X64829498Y-116475681D03*
X63224253Y-111295605D03*
%TD*%
D12*
%TO.C,SW12*%
X105000000Y-40000000D03*
D13*
X110500000Y-40000000D03*
D12*
X116000000Y-40000000D03*
D14*
X110500000Y-45900000D03*
X105500000Y-43800000D03*
%TD*%
D12*
%TO.C,SW35*%
X160500000Y-75000000D03*
D13*
X166000000Y-75000000D03*
D12*
X171500000Y-75000000D03*
D14*
X166000000Y-80900000D03*
X161000000Y-78800000D03*
%TD*%
D12*
%TO.C,SW11*%
X86500000Y-40000000D03*
D13*
X92000000Y-40000000D03*
D12*
X97500000Y-40000000D03*
D14*
X92000000Y-45900000D03*
X87000000Y-43800000D03*
%TD*%
D12*
%TO.C,SW23*%
X123500000Y-57500000D03*
D13*
X129000000Y-57500000D03*
D12*
X134500000Y-57500000D03*
D14*
X129000000Y-63400000D03*
X124000000Y-61300000D03*
%TD*%
D12*
%TO.C,SW34*%
X142000000Y-75000000D03*
D13*
X147500000Y-75000000D03*
D12*
X153000000Y-75000000D03*
D14*
X147500000Y-80900000D03*
X142500000Y-78800000D03*
%TD*%
D13*
%TO.C,SW43*%
X110500000Y-97500000D03*
D12*
X110500000Y-92000000D03*
X110500000Y-103000000D03*
D14*
X104600000Y-97500000D03*
X106700000Y-92500000D03*
%TD*%
D12*
%TO.C,SW14*%
X142000000Y-40000000D03*
D13*
X147500000Y-40000000D03*
D12*
X153000000Y-40000000D03*
D14*
X147500000Y-45900000D03*
X142500000Y-43800000D03*
%TD*%
D12*
%TO.C,SW24*%
X142000000Y-57500000D03*
D13*
X147500000Y-57500000D03*
D12*
X153000000Y-57500000D03*
D14*
X147500000Y-63400000D03*
X142500000Y-61300000D03*
%TD*%
D15*
%TO.C,D24*%
X138250000Y-62298500D03*
X138250000Y-60701500D03*
%TD*%
%TO.C,D22*%
X101250000Y-62298500D03*
X101250000Y-60701500D03*
%TD*%
D16*
%TO.C,D41*%
X62201500Y-106000000D03*
X63798500Y-106000000D03*
%TD*%
D15*
%TO.C,D11*%
X82750000Y-44798500D03*
X82750000Y-43201500D03*
%TD*%
%TO.C,D31*%
X82750000Y-79798500D03*
X82750000Y-78201500D03*
%TD*%
%TO.C,D13*%
X119750000Y-44798500D03*
X119750000Y-43201500D03*
%TD*%
%TO.C,D33*%
X119750000Y-79798500D03*
X119750000Y-78201500D03*
%TD*%
%TO.C,D14*%
X138250000Y-44798500D03*
X138250000Y-43201500D03*
%TD*%
%TO.C,D21*%
X82750000Y-62298500D03*
X82750000Y-60701500D03*
%TD*%
%TO.C,D32*%
X101250000Y-79798500D03*
X101250000Y-78201500D03*
%TD*%
%TO.C,D23*%
X119750000Y-62298500D03*
X119750000Y-60701500D03*
%TD*%
%TO.C,D12*%
X101250000Y-44798500D03*
X101250000Y-43201500D03*
%TD*%
%TO.C,D26*%
X175250000Y-62298500D03*
X175250000Y-60701500D03*
%TD*%
%TO.C,D34*%
X138250000Y-79798500D03*
X138250000Y-78201500D03*
%TD*%
%TO.C,D35*%
X156750000Y-79798500D03*
X156750000Y-78201500D03*
%TD*%
%TO.C,D15*%
X156750000Y-44798500D03*
X156750000Y-43201500D03*
%TD*%
D16*
%TO.C,D42*%
X81701500Y-94000000D03*
X83298500Y-94000000D03*
%TD*%
D15*
%TO.C,D25*%
X156750000Y-62298500D03*
X156750000Y-60701500D03*
%TD*%
D16*
%TO.C,D43*%
X105701500Y-88000000D03*
X107298500Y-88000000D03*
%TD*%
D17*
%TO.C,L3*%
X76450000Y-45587847D03*
X76450000Y-43837847D03*
X79950000Y-43837847D03*
X79950000Y-45587847D03*
%TD*%
D18*
%TO.C,SW_POWER1*%
X75950000Y-35594914D03*
X77450000Y-35594914D03*
X80450000Y-35594914D03*
D19*
X74550000Y-32734914D03*
D20*
X76700000Y-33834914D03*
D19*
X81850000Y-34944914D03*
X74550000Y-34944914D03*
D20*
X79700000Y-33834914D03*
D19*
X81850000Y-32734914D03*
%TD*%
D17*
%TO.C,L2*%
X76450000Y-50653294D03*
X76450000Y-48903294D03*
X79950000Y-48903294D03*
X79950000Y-50653294D03*
%TD*%
%TO.C,L1*%
X76450000Y-55762036D03*
X76450000Y-54012036D03*
X79950000Y-54012036D03*
X79950000Y-55762036D03*
%TD*%
D21*
%TO.C,U1*%
X63900000Y-59019750D03*
X66440000Y-59019750D03*
X68980000Y-59019750D03*
X56280000Y-36159750D03*
X56280000Y-38699750D03*
X56280000Y-41239750D03*
X56280000Y-43779750D03*
X56280000Y-46319750D03*
X56280000Y-48859750D03*
X56280000Y-51399750D03*
X56280000Y-53939750D03*
X56280000Y-56479750D03*
X56280000Y-59019750D03*
X56280000Y-61559750D03*
X56280000Y-64099750D03*
X71520000Y-64099750D03*
X71520000Y-61559750D03*
X71520000Y-59019750D03*
X71520000Y-56479750D03*
X71520000Y-53939750D03*
X71520000Y-51399750D03*
X71520000Y-48859750D03*
X71520000Y-46319750D03*
X71520000Y-43779750D03*
X71520000Y-41239750D03*
X71520000Y-38699750D03*
X71520000Y-36159750D03*
%TD*%
M02*
