%TF.GenerationSoftware,KiCad,Pcbnew,(6.0.7-1)-1*%
%TF.CreationDate,2022-10-06T22:38:22-07:00*%
%TF.ProjectId,karn-right,6b61726e-2d72-4696-9768-742e6b696361,rev?*%
%TF.SameCoordinates,Original*%
%TF.FileFunction,Legend,Top*%
%TF.FilePolarity,Positive*%
%FSLAX46Y46*%
G04 Gerber Fmt 4.6, Leading zero omitted, Abs format (unit mm)*
G04 Created by KiCad (PCBNEW (6.0.7-1)-1) date 2022-10-06 22:38:22*
%MOMM*%
%LPD*%
G01*
G04 APERTURE LIST*
%ADD10C,0.150000*%
%ADD11C,0.100000*%
%ADD12C,0.120000*%
%ADD13C,0.381000*%
%ADD14C,1.752600*%
G04 APERTURE END LIST*
D10*
X57666666Y-72452380D02*
X57666666Y-71785714D01*
X57666666Y-71976190D02*
X57714285Y-71880952D01*
X57761904Y-71833333D01*
X57857142Y-71785714D01*
X57952380Y-71785714D01*
X58428571Y-72452380D02*
X58333333Y-72404761D01*
X58285714Y-72357142D01*
X58238095Y-72261904D01*
X58238095Y-71976190D01*
X58285714Y-71880952D01*
X58333333Y-71833333D01*
X58428571Y-71785714D01*
X58571428Y-71785714D01*
X58666666Y-71833333D01*
X58714285Y-71880952D01*
X58761904Y-71976190D01*
X58761904Y-72261904D01*
X58714285Y-72357142D01*
X58666666Y-72404761D01*
X58571428Y-72452380D01*
X58428571Y-72452380D01*
X59190476Y-72452380D02*
X59190476Y-71452380D01*
X59190476Y-71833333D02*
X59285714Y-71785714D01*
X59476190Y-71785714D01*
X59571428Y-71833333D01*
X59619047Y-71880952D01*
X59666666Y-71976190D01*
X59666666Y-72261904D01*
X59619047Y-72357142D01*
X59571428Y-72404761D01*
X59476190Y-72452380D01*
X59285714Y-72452380D01*
X59190476Y-72404761D01*
X60523809Y-72404761D02*
X60428571Y-72452380D01*
X60238095Y-72452380D01*
X60142857Y-72404761D01*
X60095238Y-72357142D01*
X60047619Y-72261904D01*
X60047619Y-71976190D01*
X60095238Y-71880952D01*
X60142857Y-71833333D01*
X60238095Y-71785714D01*
X60428571Y-71785714D01*
X60523809Y-71833333D01*
X60952380Y-72452380D02*
X60952380Y-71785714D01*
X60952380Y-71880952D02*
X61000000Y-71833333D01*
X61095238Y-71785714D01*
X61238095Y-71785714D01*
X61333333Y-71833333D01*
X61380952Y-71928571D01*
X61380952Y-72452380D01*
X61380952Y-71928571D02*
X61428571Y-71833333D01*
X61523809Y-71785714D01*
X61666666Y-71785714D01*
X61761904Y-71833333D01*
X61809523Y-71928571D01*
X61809523Y-72452380D01*
X62285714Y-72452380D02*
X62285714Y-71785714D01*
X62285714Y-71452380D02*
X62238095Y-71500000D01*
X62285714Y-71547619D01*
X62333333Y-71500000D01*
X62285714Y-71452380D01*
X62285714Y-71547619D01*
X62904761Y-72452380D02*
X62809523Y-72404761D01*
X62761904Y-72309523D01*
X62761904Y-71452380D01*
X63428571Y-72452380D02*
X63333333Y-72404761D01*
X63285714Y-72309523D01*
X63285714Y-71452380D01*
X63761904Y-72404761D02*
X63857142Y-72452380D01*
X64047619Y-72452380D01*
X64142857Y-72404761D01*
X64190476Y-72309523D01*
X64190476Y-72261904D01*
X64142857Y-72166666D01*
X64047619Y-72119047D01*
X63904761Y-72119047D01*
X63809523Y-72071428D01*
X63761904Y-71976190D01*
X63761904Y-71928571D01*
X63809523Y-71833333D01*
X63904761Y-71785714D01*
X64047619Y-71785714D01*
X64142857Y-71833333D01*
X65333333Y-71404761D02*
X64476190Y-72690476D01*
X65666666Y-72452380D02*
X65666666Y-71452380D01*
X65761904Y-72071428D02*
X66047619Y-72452380D01*
X66047619Y-71785714D02*
X65666666Y-72166666D01*
X66904761Y-72452380D02*
X66904761Y-71928571D01*
X66857142Y-71833333D01*
X66761904Y-71785714D01*
X66571428Y-71785714D01*
X66476190Y-71833333D01*
X66904761Y-72404761D02*
X66809523Y-72452380D01*
X66571428Y-72452380D01*
X66476190Y-72404761D01*
X66428571Y-72309523D01*
X66428571Y-72214285D01*
X66476190Y-72119047D01*
X66571428Y-72071428D01*
X66809523Y-72071428D01*
X66904761Y-72023809D01*
X67380952Y-72452380D02*
X67380952Y-71785714D01*
X67380952Y-71976190D02*
X67428571Y-71880952D01*
X67476190Y-71833333D01*
X67571428Y-71785714D01*
X67666666Y-71785714D01*
X68000000Y-71785714D02*
X68000000Y-72452380D01*
X68000000Y-71880952D02*
X68047619Y-71833333D01*
X68142857Y-71785714D01*
X68285714Y-71785714D01*
X68380952Y-71833333D01*
X68428571Y-71928571D01*
X68428571Y-72452380D01*
X68904761Y-72071428D02*
X69666666Y-72071428D01*
X70142857Y-72452380D02*
X70142857Y-71452380D01*
X70238095Y-72071428D02*
X70523809Y-72452380D01*
X70523809Y-71785714D02*
X70142857Y-72166666D01*
X71333333Y-72404761D02*
X71238095Y-72452380D01*
X71047619Y-72452380D01*
X70952380Y-72404761D01*
X70904761Y-72309523D01*
X70904761Y-71928571D01*
X70952380Y-71833333D01*
X71047619Y-71785714D01*
X71238095Y-71785714D01*
X71333333Y-71833333D01*
X71380952Y-71928571D01*
X71380952Y-72023809D01*
X70904761Y-72119047D01*
X71714285Y-71785714D02*
X71952380Y-72452380D01*
X72190476Y-71785714D02*
X71952380Y-72452380D01*
X71857142Y-72690476D01*
X71809523Y-72738095D01*
X71714285Y-72785714D01*
X72571428Y-72452380D02*
X72571428Y-71452380D01*
X72571428Y-71833333D02*
X72666666Y-71785714D01*
X72857142Y-71785714D01*
X72952380Y-71833333D01*
X73000000Y-71880952D01*
X73047619Y-71976190D01*
X73047619Y-72261904D01*
X73000000Y-72357142D01*
X72952380Y-72404761D01*
X72857142Y-72452380D01*
X72666666Y-72452380D01*
X72571428Y-72404761D01*
X73619047Y-72452380D02*
X73523809Y-72404761D01*
X73476190Y-72357142D01*
X73428571Y-72261904D01*
X73428571Y-71976190D01*
X73476190Y-71880952D01*
X73523809Y-71833333D01*
X73619047Y-71785714D01*
X73761904Y-71785714D01*
X73857142Y-71833333D01*
X73904761Y-71880952D01*
X73952380Y-71976190D01*
X73952380Y-72261904D01*
X73904761Y-72357142D01*
X73857142Y-72404761D01*
X73761904Y-72452380D01*
X73619047Y-72452380D01*
X74809523Y-72452380D02*
X74809523Y-71928571D01*
X74761904Y-71833333D01*
X74666666Y-71785714D01*
X74476190Y-71785714D01*
X74380952Y-71833333D01*
X74809523Y-72404761D02*
X74714285Y-72452380D01*
X74476190Y-72452380D01*
X74380952Y-72404761D01*
X74333333Y-72309523D01*
X74333333Y-72214285D01*
X74380952Y-72119047D01*
X74476190Y-72071428D01*
X74714285Y-72071428D01*
X74809523Y-72023809D01*
X75285714Y-72452380D02*
X75285714Y-71785714D01*
X75285714Y-71976190D02*
X75333333Y-71880952D01*
X75380952Y-71833333D01*
X75476190Y-71785714D01*
X75571428Y-71785714D01*
X76333333Y-72452380D02*
X76333333Y-71452380D01*
X76333333Y-72404761D02*
X76238095Y-72452380D01*
X76047619Y-72452380D01*
X75952380Y-72404761D01*
X75904761Y-72357142D01*
X75857142Y-72261904D01*
X75857142Y-71976190D01*
X75904761Y-71880952D01*
X75952380Y-71833333D01*
X76047619Y-71785714D01*
X76238095Y-71785714D01*
X76333333Y-71833333D01*
%TO.C,D24*%
X138752380Y-59714285D02*
X137752380Y-59714285D01*
X137752380Y-59476190D01*
X137800000Y-59333333D01*
X137895238Y-59238095D01*
X137990476Y-59190476D01*
X138180952Y-59142857D01*
X138323809Y-59142857D01*
X138514285Y-59190476D01*
X138609523Y-59238095D01*
X138704761Y-59333333D01*
X138752380Y-59476190D01*
X138752380Y-59714285D01*
X137847619Y-58761904D02*
X137800000Y-58714285D01*
X137752380Y-58619047D01*
X137752380Y-58380952D01*
X137800000Y-58285714D01*
X137847619Y-58238095D01*
X137942857Y-58190476D01*
X138038095Y-58190476D01*
X138180952Y-58238095D01*
X138752380Y-58809523D01*
X138752380Y-58190476D01*
X138085714Y-57333333D02*
X138752380Y-57333333D01*
X137704761Y-57571428D02*
X138419047Y-57809523D01*
X138419047Y-57190476D01*
%TO.C,D22*%
X101752380Y-59514285D02*
X100752380Y-59514285D01*
X100752380Y-59276190D01*
X100800000Y-59133333D01*
X100895238Y-59038095D01*
X100990476Y-58990476D01*
X101180952Y-58942857D01*
X101323809Y-58942857D01*
X101514285Y-58990476D01*
X101609523Y-59038095D01*
X101704761Y-59133333D01*
X101752380Y-59276190D01*
X101752380Y-59514285D01*
X100847619Y-58561904D02*
X100800000Y-58514285D01*
X100752380Y-58419047D01*
X100752380Y-58180952D01*
X100800000Y-58085714D01*
X100847619Y-58038095D01*
X100942857Y-57990476D01*
X101038095Y-57990476D01*
X101180952Y-58038095D01*
X101752380Y-58609523D01*
X101752380Y-57990476D01*
X100847619Y-57609523D02*
X100800000Y-57561904D01*
X100752380Y-57466666D01*
X100752380Y-57228571D01*
X100800000Y-57133333D01*
X100847619Y-57085714D01*
X100942857Y-57038095D01*
X101038095Y-57038095D01*
X101180952Y-57085714D01*
X101752380Y-57657142D01*
X101752380Y-57038095D01*
%TO.C,D41*%
X61785714Y-104452380D02*
X61785714Y-103452380D01*
X62023809Y-103452380D01*
X62166666Y-103500000D01*
X62261904Y-103595238D01*
X62309523Y-103690476D01*
X62357142Y-103880952D01*
X62357142Y-104023809D01*
X62309523Y-104214285D01*
X62261904Y-104309523D01*
X62166666Y-104404761D01*
X62023809Y-104452380D01*
X61785714Y-104452380D01*
X63214285Y-103785714D02*
X63214285Y-104452380D01*
X62976190Y-103404761D02*
X62738095Y-104119047D01*
X63357142Y-104119047D01*
X64261904Y-104452380D02*
X63690476Y-104452380D01*
X63976190Y-104452380D02*
X63976190Y-103452380D01*
X63880952Y-103595238D01*
X63785714Y-103690476D01*
X63690476Y-103738095D01*
%TO.C,D11*%
X83252380Y-42214285D02*
X82252380Y-42214285D01*
X82252380Y-41976190D01*
X82300000Y-41833333D01*
X82395238Y-41738095D01*
X82490476Y-41690476D01*
X82680952Y-41642857D01*
X82823809Y-41642857D01*
X83014285Y-41690476D01*
X83109523Y-41738095D01*
X83204761Y-41833333D01*
X83252380Y-41976190D01*
X83252380Y-42214285D01*
X83252380Y-40690476D02*
X83252380Y-41261904D01*
X83252380Y-40976190D02*
X82252380Y-40976190D01*
X82395238Y-41071428D01*
X82490476Y-41166666D01*
X82538095Y-41261904D01*
X83252380Y-39738095D02*
X83252380Y-40309523D01*
X83252380Y-40023809D02*
X82252380Y-40023809D01*
X82395238Y-40119047D01*
X82490476Y-40214285D01*
X82538095Y-40309523D01*
%TO.C,D31*%
X83152380Y-77101573D02*
X82152380Y-77101573D01*
X82152380Y-76863478D01*
X82200000Y-76720621D01*
X82295238Y-76625383D01*
X82390476Y-76577764D01*
X82580952Y-76530145D01*
X82723809Y-76530145D01*
X82914285Y-76577764D01*
X83009523Y-76625383D01*
X83104761Y-76720621D01*
X83152380Y-76863478D01*
X83152380Y-77101573D01*
X82152380Y-76196811D02*
X82152380Y-75577764D01*
X82533333Y-75911097D01*
X82533333Y-75768240D01*
X82580952Y-75673002D01*
X82628571Y-75625383D01*
X82723809Y-75577764D01*
X82961904Y-75577764D01*
X83057142Y-75625383D01*
X83104761Y-75673002D01*
X83152380Y-75768240D01*
X83152380Y-76053954D01*
X83104761Y-76149192D01*
X83057142Y-76196811D01*
X83152380Y-74625383D02*
X83152380Y-75196811D01*
X83152380Y-74911097D02*
X82152380Y-74911097D01*
X82295238Y-75006335D01*
X82390476Y-75101573D01*
X82438095Y-75196811D01*
%TO.C,D13*%
X120252380Y-42214285D02*
X119252380Y-42214285D01*
X119252380Y-41976190D01*
X119300000Y-41833333D01*
X119395238Y-41738095D01*
X119490476Y-41690476D01*
X119680952Y-41642857D01*
X119823809Y-41642857D01*
X120014285Y-41690476D01*
X120109523Y-41738095D01*
X120204761Y-41833333D01*
X120252380Y-41976190D01*
X120252380Y-42214285D01*
X120252380Y-40690476D02*
X120252380Y-41261904D01*
X120252380Y-40976190D02*
X119252380Y-40976190D01*
X119395238Y-41071428D01*
X119490476Y-41166666D01*
X119538095Y-41261904D01*
X119252380Y-40357142D02*
X119252380Y-39738095D01*
X119633333Y-40071428D01*
X119633333Y-39928571D01*
X119680952Y-39833333D01*
X119728571Y-39785714D01*
X119823809Y-39738095D01*
X120061904Y-39738095D01*
X120157142Y-39785714D01*
X120204761Y-39833333D01*
X120252380Y-39928571D01*
X120252380Y-40214285D01*
X120204761Y-40309523D01*
X120157142Y-40357142D01*
%TO.C,D33*%
X120252380Y-77214285D02*
X119252380Y-77214285D01*
X119252380Y-76976190D01*
X119300000Y-76833333D01*
X119395238Y-76738095D01*
X119490476Y-76690476D01*
X119680952Y-76642857D01*
X119823809Y-76642857D01*
X120014285Y-76690476D01*
X120109523Y-76738095D01*
X120204761Y-76833333D01*
X120252380Y-76976190D01*
X120252380Y-77214285D01*
X119252380Y-76309523D02*
X119252380Y-75690476D01*
X119633333Y-76023809D01*
X119633333Y-75880952D01*
X119680952Y-75785714D01*
X119728571Y-75738095D01*
X119823809Y-75690476D01*
X120061904Y-75690476D01*
X120157142Y-75738095D01*
X120204761Y-75785714D01*
X120252380Y-75880952D01*
X120252380Y-76166666D01*
X120204761Y-76261904D01*
X120157142Y-76309523D01*
X119252380Y-75357142D02*
X119252380Y-74738095D01*
X119633333Y-75071428D01*
X119633333Y-74928571D01*
X119680952Y-74833333D01*
X119728571Y-74785714D01*
X119823809Y-74738095D01*
X120061904Y-74738095D01*
X120157142Y-74785714D01*
X120204761Y-74833333D01*
X120252380Y-74928571D01*
X120252380Y-75214285D01*
X120204761Y-75309523D01*
X120157142Y-75357142D01*
%TO.C,D14*%
X138752380Y-42214285D02*
X137752380Y-42214285D01*
X137752380Y-41976190D01*
X137800000Y-41833333D01*
X137895238Y-41738095D01*
X137990476Y-41690476D01*
X138180952Y-41642857D01*
X138323809Y-41642857D01*
X138514285Y-41690476D01*
X138609523Y-41738095D01*
X138704761Y-41833333D01*
X138752380Y-41976190D01*
X138752380Y-42214285D01*
X138752380Y-40690476D02*
X138752380Y-41261904D01*
X138752380Y-40976190D02*
X137752380Y-40976190D01*
X137895238Y-41071428D01*
X137990476Y-41166666D01*
X138038095Y-41261904D01*
X138085714Y-39833333D02*
X138752380Y-39833333D01*
X137704761Y-40071428D02*
X138419047Y-40309523D01*
X138419047Y-39690476D01*
%TO.C,D21*%
X83252380Y-59614285D02*
X82252380Y-59614285D01*
X82252380Y-59376190D01*
X82300000Y-59233333D01*
X82395238Y-59138095D01*
X82490476Y-59090476D01*
X82680952Y-59042857D01*
X82823809Y-59042857D01*
X83014285Y-59090476D01*
X83109523Y-59138095D01*
X83204761Y-59233333D01*
X83252380Y-59376190D01*
X83252380Y-59614285D01*
X82347619Y-58661904D02*
X82300000Y-58614285D01*
X82252380Y-58519047D01*
X82252380Y-58280952D01*
X82300000Y-58185714D01*
X82347619Y-58138095D01*
X82442857Y-58090476D01*
X82538095Y-58090476D01*
X82680952Y-58138095D01*
X83252380Y-58709523D01*
X83252380Y-58090476D01*
X83252380Y-57138095D02*
X83252380Y-57709523D01*
X83252380Y-57423809D02*
X82252380Y-57423809D01*
X82395238Y-57519047D01*
X82490476Y-57614285D01*
X82538095Y-57709523D01*
%TO.C,D32*%
X101734180Y-76964720D02*
X100734180Y-76964720D01*
X100734180Y-76726625D01*
X100781800Y-76583768D01*
X100877038Y-76488530D01*
X100972276Y-76440911D01*
X101162752Y-76393292D01*
X101305609Y-76393292D01*
X101496085Y-76440911D01*
X101591323Y-76488530D01*
X101686561Y-76583768D01*
X101734180Y-76726625D01*
X101734180Y-76964720D01*
X100734180Y-76059958D02*
X100734180Y-75440911D01*
X101115133Y-75774244D01*
X101115133Y-75631387D01*
X101162752Y-75536149D01*
X101210371Y-75488530D01*
X101305609Y-75440911D01*
X101543704Y-75440911D01*
X101638942Y-75488530D01*
X101686561Y-75536149D01*
X101734180Y-75631387D01*
X101734180Y-75917101D01*
X101686561Y-76012339D01*
X101638942Y-76059958D01*
X100829419Y-75059958D02*
X100781800Y-75012339D01*
X100734180Y-74917101D01*
X100734180Y-74679006D01*
X100781800Y-74583768D01*
X100829419Y-74536149D01*
X100924657Y-74488530D01*
X101019895Y-74488530D01*
X101162752Y-74536149D01*
X101734180Y-75107577D01*
X101734180Y-74488530D01*
%TO.C,D23*%
X120252380Y-59714285D02*
X119252380Y-59714285D01*
X119252380Y-59476190D01*
X119300000Y-59333333D01*
X119395238Y-59238095D01*
X119490476Y-59190476D01*
X119680952Y-59142857D01*
X119823809Y-59142857D01*
X120014285Y-59190476D01*
X120109523Y-59238095D01*
X120204761Y-59333333D01*
X120252380Y-59476190D01*
X120252380Y-59714285D01*
X119347619Y-58761904D02*
X119300000Y-58714285D01*
X119252380Y-58619047D01*
X119252380Y-58380952D01*
X119300000Y-58285714D01*
X119347619Y-58238095D01*
X119442857Y-58190476D01*
X119538095Y-58190476D01*
X119680952Y-58238095D01*
X120252380Y-58809523D01*
X120252380Y-58190476D01*
X119252380Y-57857142D02*
X119252380Y-57238095D01*
X119633333Y-57571428D01*
X119633333Y-57428571D01*
X119680952Y-57333333D01*
X119728571Y-57285714D01*
X119823809Y-57238095D01*
X120061904Y-57238095D01*
X120157142Y-57285714D01*
X120204761Y-57333333D01*
X120252380Y-57428571D01*
X120252380Y-57714285D01*
X120204761Y-57809523D01*
X120157142Y-57857142D01*
%TO.C,D12*%
X101752380Y-42214285D02*
X100752380Y-42214285D01*
X100752380Y-41976190D01*
X100800000Y-41833333D01*
X100895238Y-41738095D01*
X100990476Y-41690476D01*
X101180952Y-41642857D01*
X101323809Y-41642857D01*
X101514285Y-41690476D01*
X101609523Y-41738095D01*
X101704761Y-41833333D01*
X101752380Y-41976190D01*
X101752380Y-42214285D01*
X101752380Y-40690476D02*
X101752380Y-41261904D01*
X101752380Y-40976190D02*
X100752380Y-40976190D01*
X100895238Y-41071428D01*
X100990476Y-41166666D01*
X101038095Y-41261904D01*
X100847619Y-40309523D02*
X100800000Y-40261904D01*
X100752380Y-40166666D01*
X100752380Y-39928571D01*
X100800000Y-39833333D01*
X100847619Y-39785714D01*
X100942857Y-39738095D01*
X101038095Y-39738095D01*
X101180952Y-39785714D01*
X101752380Y-40357142D01*
X101752380Y-39738095D01*
%TO.C,D26*%
X175752380Y-59714285D02*
X174752380Y-59714285D01*
X174752380Y-59476190D01*
X174800000Y-59333333D01*
X174895238Y-59238095D01*
X174990476Y-59190476D01*
X175180952Y-59142857D01*
X175323809Y-59142857D01*
X175514285Y-59190476D01*
X175609523Y-59238095D01*
X175704761Y-59333333D01*
X175752380Y-59476190D01*
X175752380Y-59714285D01*
X174847619Y-58761904D02*
X174800000Y-58714285D01*
X174752380Y-58619047D01*
X174752380Y-58380952D01*
X174800000Y-58285714D01*
X174847619Y-58238095D01*
X174942857Y-58190476D01*
X175038095Y-58190476D01*
X175180952Y-58238095D01*
X175752380Y-58809523D01*
X175752380Y-58190476D01*
X174752380Y-57333333D02*
X174752380Y-57523809D01*
X174800000Y-57619047D01*
X174847619Y-57666666D01*
X174990476Y-57761904D01*
X175180952Y-57809523D01*
X175561904Y-57809523D01*
X175657142Y-57761904D01*
X175704761Y-57714285D01*
X175752380Y-57619047D01*
X175752380Y-57428571D01*
X175704761Y-57333333D01*
X175657142Y-57285714D01*
X175561904Y-57238095D01*
X175323809Y-57238095D01*
X175228571Y-57285714D01*
X175180952Y-57333333D01*
X175133333Y-57428571D01*
X175133333Y-57619047D01*
X175180952Y-57714285D01*
X175228571Y-57761904D01*
X175323809Y-57809523D01*
%TO.C,D34*%
X138752380Y-77114285D02*
X137752380Y-77114285D01*
X137752380Y-76876190D01*
X137800000Y-76733333D01*
X137895238Y-76638095D01*
X137990476Y-76590476D01*
X138180952Y-76542857D01*
X138323809Y-76542857D01*
X138514285Y-76590476D01*
X138609523Y-76638095D01*
X138704761Y-76733333D01*
X138752380Y-76876190D01*
X138752380Y-77114285D01*
X137752380Y-76209523D02*
X137752380Y-75590476D01*
X138133333Y-75923809D01*
X138133333Y-75780952D01*
X138180952Y-75685714D01*
X138228571Y-75638095D01*
X138323809Y-75590476D01*
X138561904Y-75590476D01*
X138657142Y-75638095D01*
X138704761Y-75685714D01*
X138752380Y-75780952D01*
X138752380Y-76066666D01*
X138704761Y-76161904D01*
X138657142Y-76209523D01*
X138085714Y-74733333D02*
X138752380Y-74733333D01*
X137704761Y-74971428D02*
X138419047Y-75209523D01*
X138419047Y-74590476D01*
%TO.C,D35*%
X157252380Y-77214285D02*
X156252380Y-77214285D01*
X156252380Y-76976190D01*
X156300000Y-76833333D01*
X156395238Y-76738095D01*
X156490476Y-76690476D01*
X156680952Y-76642857D01*
X156823809Y-76642857D01*
X157014285Y-76690476D01*
X157109523Y-76738095D01*
X157204761Y-76833333D01*
X157252380Y-76976190D01*
X157252380Y-77214285D01*
X156252380Y-76309523D02*
X156252380Y-75690476D01*
X156633333Y-76023809D01*
X156633333Y-75880952D01*
X156680952Y-75785714D01*
X156728571Y-75738095D01*
X156823809Y-75690476D01*
X157061904Y-75690476D01*
X157157142Y-75738095D01*
X157204761Y-75785714D01*
X157252380Y-75880952D01*
X157252380Y-76166666D01*
X157204761Y-76261904D01*
X157157142Y-76309523D01*
X156252380Y-74785714D02*
X156252380Y-75261904D01*
X156728571Y-75309523D01*
X156680952Y-75261904D01*
X156633333Y-75166666D01*
X156633333Y-74928571D01*
X156680952Y-74833333D01*
X156728571Y-74785714D01*
X156823809Y-74738095D01*
X157061904Y-74738095D01*
X157157142Y-74785714D01*
X157204761Y-74833333D01*
X157252380Y-74928571D01*
X157252380Y-75166666D01*
X157204761Y-75261904D01*
X157157142Y-75309523D01*
%TO.C,D15*%
X157252380Y-42314285D02*
X156252380Y-42314285D01*
X156252380Y-42076190D01*
X156300000Y-41933333D01*
X156395238Y-41838095D01*
X156490476Y-41790476D01*
X156680952Y-41742857D01*
X156823809Y-41742857D01*
X157014285Y-41790476D01*
X157109523Y-41838095D01*
X157204761Y-41933333D01*
X157252380Y-42076190D01*
X157252380Y-42314285D01*
X157252380Y-40790476D02*
X157252380Y-41361904D01*
X157252380Y-41076190D02*
X156252380Y-41076190D01*
X156395238Y-41171428D01*
X156490476Y-41266666D01*
X156538095Y-41361904D01*
X156252380Y-39885714D02*
X156252380Y-40361904D01*
X156728571Y-40409523D01*
X156680952Y-40361904D01*
X156633333Y-40266666D01*
X156633333Y-40028571D01*
X156680952Y-39933333D01*
X156728571Y-39885714D01*
X156823809Y-39838095D01*
X157061904Y-39838095D01*
X157157142Y-39885714D01*
X157204761Y-39933333D01*
X157252380Y-40028571D01*
X157252380Y-40266666D01*
X157204761Y-40361904D01*
X157157142Y-40409523D01*
%TO.C,D42*%
X81285714Y-92452380D02*
X81285714Y-91452380D01*
X81523809Y-91452380D01*
X81666666Y-91500000D01*
X81761904Y-91595238D01*
X81809523Y-91690476D01*
X81857142Y-91880952D01*
X81857142Y-92023809D01*
X81809523Y-92214285D01*
X81761904Y-92309523D01*
X81666666Y-92404761D01*
X81523809Y-92452380D01*
X81285714Y-92452380D01*
X82714285Y-91785714D02*
X82714285Y-92452380D01*
X82476190Y-91404761D02*
X82238095Y-92119047D01*
X82857142Y-92119047D01*
X83190476Y-91547619D02*
X83238095Y-91500000D01*
X83333333Y-91452380D01*
X83571428Y-91452380D01*
X83666666Y-91500000D01*
X83714285Y-91547619D01*
X83761904Y-91642857D01*
X83761904Y-91738095D01*
X83714285Y-91880952D01*
X83142857Y-92452380D01*
X83761904Y-92452380D01*
%TO.C,D25*%
X157252380Y-59714285D02*
X156252380Y-59714285D01*
X156252380Y-59476190D01*
X156300000Y-59333333D01*
X156395238Y-59238095D01*
X156490476Y-59190476D01*
X156680952Y-59142857D01*
X156823809Y-59142857D01*
X157014285Y-59190476D01*
X157109523Y-59238095D01*
X157204761Y-59333333D01*
X157252380Y-59476190D01*
X157252380Y-59714285D01*
X156347619Y-58761904D02*
X156300000Y-58714285D01*
X156252380Y-58619047D01*
X156252380Y-58380952D01*
X156300000Y-58285714D01*
X156347619Y-58238095D01*
X156442857Y-58190476D01*
X156538095Y-58190476D01*
X156680952Y-58238095D01*
X157252380Y-58809523D01*
X157252380Y-58190476D01*
X156252380Y-57285714D02*
X156252380Y-57761904D01*
X156728571Y-57809523D01*
X156680952Y-57761904D01*
X156633333Y-57666666D01*
X156633333Y-57428571D01*
X156680952Y-57333333D01*
X156728571Y-57285714D01*
X156823809Y-57238095D01*
X157061904Y-57238095D01*
X157157142Y-57285714D01*
X157204761Y-57333333D01*
X157252380Y-57428571D01*
X157252380Y-57666666D01*
X157204761Y-57761904D01*
X157157142Y-57809523D01*
%TO.C,D43*%
X105285714Y-86452380D02*
X105285714Y-85452380D01*
X105523809Y-85452380D01*
X105666666Y-85500000D01*
X105761904Y-85595238D01*
X105809523Y-85690476D01*
X105857142Y-85880952D01*
X105857142Y-86023809D01*
X105809523Y-86214285D01*
X105761904Y-86309523D01*
X105666666Y-86404761D01*
X105523809Y-86452380D01*
X105285714Y-86452380D01*
X106714285Y-85785714D02*
X106714285Y-86452380D01*
X106476190Y-85404761D02*
X106238095Y-86119047D01*
X106857142Y-86119047D01*
X107142857Y-85452380D02*
X107761904Y-85452380D01*
X107428571Y-85833333D01*
X107571428Y-85833333D01*
X107666666Y-85880952D01*
X107714285Y-85928571D01*
X107761904Y-86023809D01*
X107761904Y-86261904D01*
X107714285Y-86357142D01*
X107666666Y-86404761D01*
X107571428Y-86452380D01*
X107285714Y-86452380D01*
X107190476Y-86404761D01*
X107142857Y-86357142D01*
%TO.C,RSW1*%
X76885714Y-40252380D02*
X76552380Y-39776190D01*
X76314285Y-40252380D02*
X76314285Y-39252380D01*
X76695238Y-39252380D01*
X76790476Y-39300000D01*
X76838095Y-39347619D01*
X76885714Y-39442857D01*
X76885714Y-39585714D01*
X76838095Y-39680952D01*
X76790476Y-39728571D01*
X76695238Y-39776190D01*
X76314285Y-39776190D01*
X77266666Y-40204761D02*
X77409523Y-40252380D01*
X77647619Y-40252380D01*
X77742857Y-40204761D01*
X77790476Y-40157142D01*
X77838095Y-40061904D01*
X77838095Y-39966666D01*
X77790476Y-39871428D01*
X77742857Y-39823809D01*
X77647619Y-39776190D01*
X77457142Y-39728571D01*
X77361904Y-39680952D01*
X77314285Y-39633333D01*
X77266666Y-39538095D01*
X77266666Y-39442857D01*
X77314285Y-39347619D01*
X77361904Y-39300000D01*
X77457142Y-39252380D01*
X77695238Y-39252380D01*
X77838095Y-39300000D01*
X78171428Y-39252380D02*
X78409523Y-40252380D01*
X78600000Y-39538095D01*
X78790476Y-40252380D01*
X79028571Y-39252380D01*
X79933333Y-40252380D02*
X79361904Y-40252380D01*
X79647619Y-40252380D02*
X79647619Y-39252380D01*
X79552380Y-39395238D01*
X79457142Y-39490476D01*
X79361904Y-39538095D01*
%TO.C,SW22*%
X108690476Y-61154761D02*
X108833333Y-61202380D01*
X109071428Y-61202380D01*
X109166666Y-61154761D01*
X109214285Y-61107142D01*
X109261904Y-61011904D01*
X109261904Y-60916666D01*
X109214285Y-60821428D01*
X109166666Y-60773809D01*
X109071428Y-60726190D01*
X108880952Y-60678571D01*
X108785714Y-60630952D01*
X108738095Y-60583333D01*
X108690476Y-60488095D01*
X108690476Y-60392857D01*
X108738095Y-60297619D01*
X108785714Y-60250000D01*
X108880952Y-60202380D01*
X109119047Y-60202380D01*
X109261904Y-60250000D01*
X109595238Y-60202380D02*
X109833333Y-61202380D01*
X110023809Y-60488095D01*
X110214285Y-61202380D01*
X110452380Y-60202380D01*
X110785714Y-60297619D02*
X110833333Y-60250000D01*
X110928571Y-60202380D01*
X111166666Y-60202380D01*
X111261904Y-60250000D01*
X111309523Y-60297619D01*
X111357142Y-60392857D01*
X111357142Y-60488095D01*
X111309523Y-60630952D01*
X110738095Y-61202380D01*
X111357142Y-61202380D01*
X111738095Y-60297619D02*
X111785714Y-60250000D01*
X111880952Y-60202380D01*
X112119047Y-60202380D01*
X112214285Y-60250000D01*
X112261904Y-60297619D01*
X112309523Y-60392857D01*
X112309523Y-60488095D01*
X112261904Y-60630952D01*
X111690476Y-61202380D01*
X112309523Y-61202380D01*
%TO.C,SW15*%
X164190476Y-43654761D02*
X164333333Y-43702380D01*
X164571428Y-43702380D01*
X164666666Y-43654761D01*
X164714285Y-43607142D01*
X164761904Y-43511904D01*
X164761904Y-43416666D01*
X164714285Y-43321428D01*
X164666666Y-43273809D01*
X164571428Y-43226190D01*
X164380952Y-43178571D01*
X164285714Y-43130952D01*
X164238095Y-43083333D01*
X164190476Y-42988095D01*
X164190476Y-42892857D01*
X164238095Y-42797619D01*
X164285714Y-42750000D01*
X164380952Y-42702380D01*
X164619047Y-42702380D01*
X164761904Y-42750000D01*
X165095238Y-42702380D02*
X165333333Y-43702380D01*
X165523809Y-42988095D01*
X165714285Y-43702380D01*
X165952380Y-42702380D01*
X166857142Y-43702380D02*
X166285714Y-43702380D01*
X166571428Y-43702380D02*
X166571428Y-42702380D01*
X166476190Y-42845238D01*
X166380952Y-42940476D01*
X166285714Y-42988095D01*
X167761904Y-42702380D02*
X167285714Y-42702380D01*
X167238095Y-43178571D01*
X167285714Y-43130952D01*
X167380952Y-43083333D01*
X167619047Y-43083333D01*
X167714285Y-43130952D01*
X167761904Y-43178571D01*
X167809523Y-43273809D01*
X167809523Y-43511904D01*
X167761904Y-43607142D01*
X167714285Y-43654761D01*
X167619047Y-43702380D01*
X167380952Y-43702380D01*
X167285714Y-43654761D01*
X167238095Y-43607142D01*
%TO.C,SW13*%
X127190476Y-43654761D02*
X127333333Y-43702380D01*
X127571428Y-43702380D01*
X127666666Y-43654761D01*
X127714285Y-43607142D01*
X127761904Y-43511904D01*
X127761904Y-43416666D01*
X127714285Y-43321428D01*
X127666666Y-43273809D01*
X127571428Y-43226190D01*
X127380952Y-43178571D01*
X127285714Y-43130952D01*
X127238095Y-43083333D01*
X127190476Y-42988095D01*
X127190476Y-42892857D01*
X127238095Y-42797619D01*
X127285714Y-42750000D01*
X127380952Y-42702380D01*
X127619047Y-42702380D01*
X127761904Y-42750000D01*
X128095238Y-42702380D02*
X128333333Y-43702380D01*
X128523809Y-42988095D01*
X128714285Y-43702380D01*
X128952380Y-42702380D01*
X129857142Y-43702380D02*
X129285714Y-43702380D01*
X129571428Y-43702380D02*
X129571428Y-42702380D01*
X129476190Y-42845238D01*
X129380952Y-42940476D01*
X129285714Y-42988095D01*
X130190476Y-42702380D02*
X130809523Y-42702380D01*
X130476190Y-43083333D01*
X130619047Y-43083333D01*
X130714285Y-43130952D01*
X130761904Y-43178571D01*
X130809523Y-43273809D01*
X130809523Y-43511904D01*
X130761904Y-43607142D01*
X130714285Y-43654761D01*
X130619047Y-43702380D01*
X130333333Y-43702380D01*
X130238095Y-43654761D01*
X130190476Y-43607142D01*
%TO.C,SW42*%
X84349367Y-101120735D02*
X84358731Y-101271028D01*
X84447923Y-101491786D01*
X84527751Y-101562251D01*
X84589741Y-101588564D01*
X84695883Y-101597039D01*
X84784186Y-101561362D01*
X84854651Y-101481534D01*
X84880964Y-101419544D01*
X84889439Y-101313402D01*
X84862237Y-101118957D01*
X84870712Y-101012815D01*
X84897025Y-100950825D01*
X84967490Y-100870997D01*
X85055793Y-100835320D01*
X85161935Y-100843795D01*
X85223925Y-100870108D01*
X85303753Y-100940573D01*
X85392945Y-101161331D01*
X85402309Y-101311624D01*
X85571329Y-101602847D02*
X84733337Y-102198212D01*
X85466965Y-102107242D01*
X84876045Y-102551425D01*
X85892421Y-102397576D01*
X85886612Y-103273022D02*
X85268490Y-103522760D01*
X86150633Y-102909557D02*
X85399167Y-102956375D01*
X85631066Y-103530346D01*
X86285754Y-103625347D02*
X86347744Y-103651660D01*
X86427573Y-103722125D01*
X86516765Y-103942883D01*
X86508290Y-104049024D01*
X86481977Y-104111014D01*
X86411512Y-104190843D01*
X86323209Y-104226520D01*
X86172916Y-104235883D01*
X85429035Y-103920125D01*
X85660935Y-104494096D01*
%TO.C,SW31*%
X90190476Y-78654761D02*
X90333333Y-78702380D01*
X90571428Y-78702380D01*
X90666666Y-78654761D01*
X90714285Y-78607142D01*
X90761904Y-78511904D01*
X90761904Y-78416666D01*
X90714285Y-78321428D01*
X90666666Y-78273809D01*
X90571428Y-78226190D01*
X90380952Y-78178571D01*
X90285714Y-78130952D01*
X90238095Y-78083333D01*
X90190476Y-77988095D01*
X90190476Y-77892857D01*
X90238095Y-77797619D01*
X90285714Y-77750000D01*
X90380952Y-77702380D01*
X90619047Y-77702380D01*
X90761904Y-77750000D01*
X91095238Y-77702380D02*
X91333333Y-78702380D01*
X91523809Y-77988095D01*
X91714285Y-78702380D01*
X91952380Y-77702380D01*
X92238095Y-77702380D02*
X92857142Y-77702380D01*
X92523809Y-78083333D01*
X92666666Y-78083333D01*
X92761904Y-78130952D01*
X92809523Y-78178571D01*
X92857142Y-78273809D01*
X92857142Y-78511904D01*
X92809523Y-78607142D01*
X92761904Y-78654761D01*
X92666666Y-78702380D01*
X92380952Y-78702380D01*
X92285714Y-78654761D01*
X92238095Y-78607142D01*
X93809523Y-78702380D02*
X93238095Y-78702380D01*
X93523809Y-78702380D02*
X93523809Y-77702380D01*
X93428571Y-77845238D01*
X93333333Y-77940476D01*
X93238095Y-77988095D01*
%TO.C,L3*%
X78024324Y-45197533D02*
X77548133Y-45197533D01*
X77548133Y-44197533D01*
X78262419Y-44197533D02*
X78881467Y-44197533D01*
X78548133Y-44578486D01*
X78690991Y-44578486D01*
X78786229Y-44626105D01*
X78833848Y-44673724D01*
X78881467Y-44768962D01*
X78881467Y-45007057D01*
X78833848Y-45102295D01*
X78786229Y-45149914D01*
X78690991Y-45197533D01*
X78405276Y-45197533D01*
X78310038Y-45149914D01*
X78262419Y-45102295D01*
%TO.C,J1*%
X77879050Y-63961831D02*
X77879050Y-64676117D01*
X77831431Y-64818974D01*
X77736193Y-64914212D01*
X77593336Y-64961831D01*
X77498098Y-64961831D01*
X78879050Y-64961831D02*
X78307622Y-64961831D01*
X78593336Y-64961831D02*
X78593336Y-63961831D01*
X78498098Y-64104689D01*
X78402860Y-64199927D01*
X78307622Y-64247546D01*
D11*
X79078571Y-60327700D02*
X79007142Y-60291985D01*
X78900000Y-60291985D01*
X78792857Y-60327700D01*
X78721428Y-60399128D01*
X78685714Y-60470557D01*
X78650000Y-60613414D01*
X78650000Y-60720557D01*
X78685714Y-60863414D01*
X78721428Y-60934842D01*
X78792857Y-61006271D01*
X78900000Y-61041985D01*
X78971428Y-61041985D01*
X79078571Y-61006271D01*
X79114285Y-60970557D01*
X79114285Y-60720557D01*
X78971428Y-60720557D01*
X79435714Y-61041985D02*
X79435714Y-60291985D01*
X79864285Y-61041985D01*
X79864285Y-60291985D01*
X80221428Y-61041985D02*
X80221428Y-60291985D01*
X80400000Y-60291985D01*
X80507142Y-60327700D01*
X80578571Y-60399128D01*
X80614285Y-60470557D01*
X80650000Y-60613414D01*
X80650000Y-60720557D01*
X80614285Y-60863414D01*
X80578571Y-60934842D01*
X80507142Y-61006271D01*
X80400000Y-61041985D01*
X80221428Y-61041985D01*
X76003571Y-60649128D02*
X76110714Y-60684842D01*
X76146428Y-60720557D01*
X76182142Y-60791985D01*
X76182142Y-60899128D01*
X76146428Y-60970557D01*
X76110714Y-61006271D01*
X76039285Y-61041985D01*
X75753571Y-61041985D01*
X75753571Y-60291985D01*
X76003571Y-60291985D01*
X76075000Y-60327700D01*
X76110714Y-60363414D01*
X76146428Y-60434842D01*
X76146428Y-60506271D01*
X76110714Y-60577700D01*
X76075000Y-60613414D01*
X76003571Y-60649128D01*
X75753571Y-60649128D01*
X76396428Y-60291985D02*
X76825000Y-60291985D01*
X76610714Y-61041985D02*
X76610714Y-60291985D01*
X77075000Y-60756271D02*
X77646428Y-60756271D01*
X77360714Y-61041985D02*
X77360714Y-60470557D01*
D10*
%TO.C,SW26*%
X180595238Y-55690476D02*
X180547619Y-55833333D01*
X180547619Y-56071428D01*
X180595238Y-56166666D01*
X180642857Y-56214285D01*
X180738095Y-56261904D01*
X180833333Y-56261904D01*
X180928571Y-56214285D01*
X180976190Y-56166666D01*
X181023809Y-56071428D01*
X181071428Y-55880952D01*
X181119047Y-55785714D01*
X181166666Y-55738095D01*
X181261904Y-55690476D01*
X181357142Y-55690476D01*
X181452380Y-55738095D01*
X181500000Y-55785714D01*
X181547619Y-55880952D01*
X181547619Y-56119047D01*
X181500000Y-56261904D01*
X181547619Y-56595238D02*
X180547619Y-56833333D01*
X181261904Y-57023809D01*
X180547619Y-57214285D01*
X181547619Y-57452380D01*
X181452380Y-57785714D02*
X181500000Y-57833333D01*
X181547619Y-57928571D01*
X181547619Y-58166666D01*
X181500000Y-58261904D01*
X181452380Y-58309523D01*
X181357142Y-58357142D01*
X181261904Y-58357142D01*
X181119047Y-58309523D01*
X180547619Y-57738095D01*
X180547619Y-58357142D01*
X181547619Y-59214285D02*
X181547619Y-59023809D01*
X181500000Y-58928571D01*
X181452380Y-58880952D01*
X181309523Y-58785714D01*
X181119047Y-58738095D01*
X180738095Y-58738095D01*
X180642857Y-58785714D01*
X180595238Y-58833333D01*
X180547619Y-58928571D01*
X180547619Y-59119047D01*
X180595238Y-59214285D01*
X180642857Y-59261904D01*
X180738095Y-59309523D01*
X180976190Y-59309523D01*
X181071428Y-59261904D01*
X181119047Y-59214285D01*
X181166666Y-59119047D01*
X181166666Y-58928571D01*
X181119047Y-58833333D01*
X181071428Y-58785714D01*
X180976190Y-58738095D01*
%TO.C,SW33*%
X127190476Y-78654761D02*
X127333333Y-78702380D01*
X127571428Y-78702380D01*
X127666666Y-78654761D01*
X127714285Y-78607142D01*
X127761904Y-78511904D01*
X127761904Y-78416666D01*
X127714285Y-78321428D01*
X127666666Y-78273809D01*
X127571428Y-78226190D01*
X127380952Y-78178571D01*
X127285714Y-78130952D01*
X127238095Y-78083333D01*
X127190476Y-77988095D01*
X127190476Y-77892857D01*
X127238095Y-77797619D01*
X127285714Y-77750000D01*
X127380952Y-77702380D01*
X127619047Y-77702380D01*
X127761904Y-77750000D01*
X128095238Y-77702380D02*
X128333333Y-78702380D01*
X128523809Y-77988095D01*
X128714285Y-78702380D01*
X128952380Y-77702380D01*
X129238095Y-77702380D02*
X129857142Y-77702380D01*
X129523809Y-78083333D01*
X129666666Y-78083333D01*
X129761904Y-78130952D01*
X129809523Y-78178571D01*
X129857142Y-78273809D01*
X129857142Y-78511904D01*
X129809523Y-78607142D01*
X129761904Y-78654761D01*
X129666666Y-78702380D01*
X129380952Y-78702380D01*
X129285714Y-78654761D01*
X129238095Y-78607142D01*
X130190476Y-77702380D02*
X130809523Y-77702380D01*
X130476190Y-78083333D01*
X130619047Y-78083333D01*
X130714285Y-78130952D01*
X130761904Y-78178571D01*
X130809523Y-78273809D01*
X130809523Y-78511904D01*
X130761904Y-78607142D01*
X130714285Y-78654761D01*
X130619047Y-78702380D01*
X130333333Y-78702380D01*
X130238095Y-78654761D01*
X130190476Y-78607142D01*
%TO.C,SW25*%
X164190476Y-61154761D02*
X164333333Y-61202380D01*
X164571428Y-61202380D01*
X164666666Y-61154761D01*
X164714285Y-61107142D01*
X164761904Y-61011904D01*
X164761904Y-60916666D01*
X164714285Y-60821428D01*
X164666666Y-60773809D01*
X164571428Y-60726190D01*
X164380952Y-60678571D01*
X164285714Y-60630952D01*
X164238095Y-60583333D01*
X164190476Y-60488095D01*
X164190476Y-60392857D01*
X164238095Y-60297619D01*
X164285714Y-60250000D01*
X164380952Y-60202380D01*
X164619047Y-60202380D01*
X164761904Y-60250000D01*
X165095238Y-60202380D02*
X165333333Y-61202380D01*
X165523809Y-60488095D01*
X165714285Y-61202380D01*
X165952380Y-60202380D01*
X166285714Y-60297619D02*
X166333333Y-60250000D01*
X166428571Y-60202380D01*
X166666666Y-60202380D01*
X166761904Y-60250000D01*
X166809523Y-60297619D01*
X166857142Y-60392857D01*
X166857142Y-60488095D01*
X166809523Y-60630952D01*
X166238095Y-61202380D01*
X166857142Y-61202380D01*
X167761904Y-60202380D02*
X167285714Y-60202380D01*
X167238095Y-60678571D01*
X167285714Y-60630952D01*
X167380952Y-60583333D01*
X167619047Y-60583333D01*
X167714285Y-60630952D01*
X167761904Y-60678571D01*
X167809523Y-60773809D01*
X167809523Y-61011904D01*
X167761904Y-61107142D01*
X167714285Y-61154761D01*
X167619047Y-61202380D01*
X167380952Y-61202380D01*
X167285714Y-61154761D01*
X167238095Y-61107142D01*
%TO.C,SW32*%
X108690476Y-78654761D02*
X108833333Y-78702380D01*
X109071428Y-78702380D01*
X109166666Y-78654761D01*
X109214285Y-78607142D01*
X109261904Y-78511904D01*
X109261904Y-78416666D01*
X109214285Y-78321428D01*
X109166666Y-78273809D01*
X109071428Y-78226190D01*
X108880952Y-78178571D01*
X108785714Y-78130952D01*
X108738095Y-78083333D01*
X108690476Y-77988095D01*
X108690476Y-77892857D01*
X108738095Y-77797619D01*
X108785714Y-77750000D01*
X108880952Y-77702380D01*
X109119047Y-77702380D01*
X109261904Y-77750000D01*
X109595238Y-77702380D02*
X109833333Y-78702380D01*
X110023809Y-77988095D01*
X110214285Y-78702380D01*
X110452380Y-77702380D01*
X110738095Y-77702380D02*
X111357142Y-77702380D01*
X111023809Y-78083333D01*
X111166666Y-78083333D01*
X111261904Y-78130952D01*
X111309523Y-78178571D01*
X111357142Y-78273809D01*
X111357142Y-78511904D01*
X111309523Y-78607142D01*
X111261904Y-78654761D01*
X111166666Y-78702380D01*
X110880952Y-78702380D01*
X110785714Y-78654761D01*
X110738095Y-78607142D01*
X111738095Y-77797619D02*
X111785714Y-77750000D01*
X111880952Y-77702380D01*
X112119047Y-77702380D01*
X112214285Y-77750000D01*
X112261904Y-77797619D01*
X112309523Y-77892857D01*
X112309523Y-77988095D01*
X112261904Y-78130952D01*
X111690476Y-78702380D01*
X112309523Y-78702380D01*
%TO.C,SW21*%
X90190476Y-61154761D02*
X90333333Y-61202380D01*
X90571428Y-61202380D01*
X90666666Y-61154761D01*
X90714285Y-61107142D01*
X90761904Y-61011904D01*
X90761904Y-60916666D01*
X90714285Y-60821428D01*
X90666666Y-60773809D01*
X90571428Y-60726190D01*
X90380952Y-60678571D01*
X90285714Y-60630952D01*
X90238095Y-60583333D01*
X90190476Y-60488095D01*
X90190476Y-60392857D01*
X90238095Y-60297619D01*
X90285714Y-60250000D01*
X90380952Y-60202380D01*
X90619047Y-60202380D01*
X90761904Y-60250000D01*
X91095238Y-60202380D02*
X91333333Y-61202380D01*
X91523809Y-60488095D01*
X91714285Y-61202380D01*
X91952380Y-60202380D01*
X92285714Y-60297619D02*
X92333333Y-60250000D01*
X92428571Y-60202380D01*
X92666666Y-60202380D01*
X92761904Y-60250000D01*
X92809523Y-60297619D01*
X92857142Y-60392857D01*
X92857142Y-60488095D01*
X92809523Y-60630952D01*
X92238095Y-61202380D01*
X92857142Y-61202380D01*
X93809523Y-61202380D02*
X93238095Y-61202380D01*
X93523809Y-61202380D02*
X93523809Y-60202380D01*
X93428571Y-60345238D01*
X93333333Y-60440476D01*
X93238095Y-60488095D01*
%TO.C,SW41*%
X65450853Y-113801000D02*
X65506202Y-113941044D01*
X65659247Y-114123435D01*
X65756943Y-114165783D01*
X65824030Y-114171652D01*
X65927596Y-114146913D01*
X66000552Y-114085695D01*
X66042900Y-113987999D01*
X66048769Y-113920911D01*
X66024030Y-113817346D01*
X65938072Y-113640824D01*
X65913333Y-113537258D01*
X65919202Y-113470171D01*
X65961550Y-113372475D01*
X66034506Y-113311257D01*
X66138072Y-113286517D01*
X66205159Y-113292387D01*
X66302855Y-113334734D01*
X66455900Y-113517126D01*
X66511248Y-113657170D01*
X66761989Y-113881909D02*
X66148990Y-114707088D01*
X66818600Y-114393867D01*
X66393861Y-114998915D01*
X67312950Y-114538518D01*
X67577954Y-115372912D02*
X67067258Y-115801437D01*
X67716736Y-114945649D02*
X67016516Y-115222392D01*
X67414432Y-115696610D01*
X67740654Y-116603960D02*
X67373347Y-116166220D01*
X67557000Y-116385090D02*
X68323045Y-115742303D01*
X68152392Y-115761173D01*
X68018218Y-115749434D01*
X67920521Y-115707086D01*
%TO.C,L2*%
X78024324Y-50236703D02*
X77548133Y-50236703D01*
X77548133Y-49236703D01*
X78310038Y-49331942D02*
X78357657Y-49284323D01*
X78452895Y-49236703D01*
X78690991Y-49236703D01*
X78786229Y-49284323D01*
X78833848Y-49331942D01*
X78881467Y-49427180D01*
X78881467Y-49522418D01*
X78833848Y-49665275D01*
X78262419Y-50236703D01*
X78881467Y-50236703D01*
%TO.C,L1*%
X78024324Y-55355023D02*
X77548133Y-55355023D01*
X77548133Y-54355023D01*
X78881467Y-55355023D02*
X78310038Y-55355023D01*
X78595752Y-55355023D02*
X78595752Y-54355023D01*
X78500514Y-54497881D01*
X78405276Y-54593119D01*
X78310038Y-54640738D01*
%TO.C,SW12*%
X108690476Y-43654761D02*
X108833333Y-43702380D01*
X109071428Y-43702380D01*
X109166666Y-43654761D01*
X109214285Y-43607142D01*
X109261904Y-43511904D01*
X109261904Y-43416666D01*
X109214285Y-43321428D01*
X109166666Y-43273809D01*
X109071428Y-43226190D01*
X108880952Y-43178571D01*
X108785714Y-43130952D01*
X108738095Y-43083333D01*
X108690476Y-42988095D01*
X108690476Y-42892857D01*
X108738095Y-42797619D01*
X108785714Y-42750000D01*
X108880952Y-42702380D01*
X109119047Y-42702380D01*
X109261904Y-42750000D01*
X109595238Y-42702380D02*
X109833333Y-43702380D01*
X110023809Y-42988095D01*
X110214285Y-43702380D01*
X110452380Y-42702380D01*
X111357142Y-43702380D02*
X110785714Y-43702380D01*
X111071428Y-43702380D02*
X111071428Y-42702380D01*
X110976190Y-42845238D01*
X110880952Y-42940476D01*
X110785714Y-42988095D01*
X111738095Y-42797619D02*
X111785714Y-42750000D01*
X111880952Y-42702380D01*
X112119047Y-42702380D01*
X112214285Y-42750000D01*
X112261904Y-42797619D01*
X112309523Y-42892857D01*
X112309523Y-42988095D01*
X112261904Y-43130952D01*
X111690476Y-43702380D01*
X112309523Y-43702380D01*
%TO.C,SW35*%
X164190476Y-78654761D02*
X164333333Y-78702380D01*
X164571428Y-78702380D01*
X164666666Y-78654761D01*
X164714285Y-78607142D01*
X164761904Y-78511904D01*
X164761904Y-78416666D01*
X164714285Y-78321428D01*
X164666666Y-78273809D01*
X164571428Y-78226190D01*
X164380952Y-78178571D01*
X164285714Y-78130952D01*
X164238095Y-78083333D01*
X164190476Y-77988095D01*
X164190476Y-77892857D01*
X164238095Y-77797619D01*
X164285714Y-77750000D01*
X164380952Y-77702380D01*
X164619047Y-77702380D01*
X164761904Y-77750000D01*
X165095238Y-77702380D02*
X165333333Y-78702380D01*
X165523809Y-77988095D01*
X165714285Y-78702380D01*
X165952380Y-77702380D01*
X166238095Y-77702380D02*
X166857142Y-77702380D01*
X166523809Y-78083333D01*
X166666666Y-78083333D01*
X166761904Y-78130952D01*
X166809523Y-78178571D01*
X166857142Y-78273809D01*
X166857142Y-78511904D01*
X166809523Y-78607142D01*
X166761904Y-78654761D01*
X166666666Y-78702380D01*
X166380952Y-78702380D01*
X166285714Y-78654761D01*
X166238095Y-78607142D01*
X167761904Y-77702380D02*
X167285714Y-77702380D01*
X167238095Y-78178571D01*
X167285714Y-78130952D01*
X167380952Y-78083333D01*
X167619047Y-78083333D01*
X167714285Y-78130952D01*
X167761904Y-78178571D01*
X167809523Y-78273809D01*
X167809523Y-78511904D01*
X167761904Y-78607142D01*
X167714285Y-78654761D01*
X167619047Y-78702380D01*
X167380952Y-78702380D01*
X167285714Y-78654761D01*
X167238095Y-78607142D01*
%TO.C,SW11*%
X90190476Y-43654761D02*
X90333333Y-43702380D01*
X90571428Y-43702380D01*
X90666666Y-43654761D01*
X90714285Y-43607142D01*
X90761904Y-43511904D01*
X90761904Y-43416666D01*
X90714285Y-43321428D01*
X90666666Y-43273809D01*
X90571428Y-43226190D01*
X90380952Y-43178571D01*
X90285714Y-43130952D01*
X90238095Y-43083333D01*
X90190476Y-42988095D01*
X90190476Y-42892857D01*
X90238095Y-42797619D01*
X90285714Y-42750000D01*
X90380952Y-42702380D01*
X90619047Y-42702380D01*
X90761904Y-42750000D01*
X91095238Y-42702380D02*
X91333333Y-43702380D01*
X91523809Y-42988095D01*
X91714285Y-43702380D01*
X91952380Y-42702380D01*
X92857142Y-43702380D02*
X92285714Y-43702380D01*
X92571428Y-43702380D02*
X92571428Y-42702380D01*
X92476190Y-42845238D01*
X92380952Y-42940476D01*
X92285714Y-42988095D01*
X93809523Y-43702380D02*
X93238095Y-43702380D01*
X93523809Y-43702380D02*
X93523809Y-42702380D01*
X93428571Y-42845238D01*
X93333333Y-42940476D01*
X93238095Y-42988095D01*
%TO.C,SW23*%
X127190476Y-61154761D02*
X127333333Y-61202380D01*
X127571428Y-61202380D01*
X127666666Y-61154761D01*
X127714285Y-61107142D01*
X127761904Y-61011904D01*
X127761904Y-60916666D01*
X127714285Y-60821428D01*
X127666666Y-60773809D01*
X127571428Y-60726190D01*
X127380952Y-60678571D01*
X127285714Y-60630952D01*
X127238095Y-60583333D01*
X127190476Y-60488095D01*
X127190476Y-60392857D01*
X127238095Y-60297619D01*
X127285714Y-60250000D01*
X127380952Y-60202380D01*
X127619047Y-60202380D01*
X127761904Y-60250000D01*
X128095238Y-60202380D02*
X128333333Y-61202380D01*
X128523809Y-60488095D01*
X128714285Y-61202380D01*
X128952380Y-60202380D01*
X129285714Y-60297619D02*
X129333333Y-60250000D01*
X129428571Y-60202380D01*
X129666666Y-60202380D01*
X129761904Y-60250000D01*
X129809523Y-60297619D01*
X129857142Y-60392857D01*
X129857142Y-60488095D01*
X129809523Y-60630952D01*
X129238095Y-61202380D01*
X129857142Y-61202380D01*
X130190476Y-60202380D02*
X130809523Y-60202380D01*
X130476190Y-60583333D01*
X130619047Y-60583333D01*
X130714285Y-60630952D01*
X130761904Y-60678571D01*
X130809523Y-60773809D01*
X130809523Y-61011904D01*
X130761904Y-61107142D01*
X130714285Y-61154761D01*
X130619047Y-61202380D01*
X130333333Y-61202380D01*
X130238095Y-61154761D01*
X130190476Y-61107142D01*
%TO.C,SW34*%
X145690476Y-78654761D02*
X145833333Y-78702380D01*
X146071428Y-78702380D01*
X146166666Y-78654761D01*
X146214285Y-78607142D01*
X146261904Y-78511904D01*
X146261904Y-78416666D01*
X146214285Y-78321428D01*
X146166666Y-78273809D01*
X146071428Y-78226190D01*
X145880952Y-78178571D01*
X145785714Y-78130952D01*
X145738095Y-78083333D01*
X145690476Y-77988095D01*
X145690476Y-77892857D01*
X145738095Y-77797619D01*
X145785714Y-77750000D01*
X145880952Y-77702380D01*
X146119047Y-77702380D01*
X146261904Y-77750000D01*
X146595238Y-77702380D02*
X146833333Y-78702380D01*
X147023809Y-77988095D01*
X147214285Y-78702380D01*
X147452380Y-77702380D01*
X147738095Y-77702380D02*
X148357142Y-77702380D01*
X148023809Y-78083333D01*
X148166666Y-78083333D01*
X148261904Y-78130952D01*
X148309523Y-78178571D01*
X148357142Y-78273809D01*
X148357142Y-78511904D01*
X148309523Y-78607142D01*
X148261904Y-78654761D01*
X148166666Y-78702380D01*
X147880952Y-78702380D01*
X147785714Y-78654761D01*
X147738095Y-78607142D01*
X149214285Y-78035714D02*
X149214285Y-78702380D01*
X148976190Y-77654761D02*
X148738095Y-78369047D01*
X149357142Y-78369047D01*
%TO.C,SW43*%
X107095238Y-95690476D02*
X107047619Y-95833333D01*
X107047619Y-96071428D01*
X107095238Y-96166666D01*
X107142857Y-96214285D01*
X107238095Y-96261904D01*
X107333333Y-96261904D01*
X107428571Y-96214285D01*
X107476190Y-96166666D01*
X107523809Y-96071428D01*
X107571428Y-95880952D01*
X107619047Y-95785714D01*
X107666666Y-95738095D01*
X107761904Y-95690476D01*
X107857142Y-95690476D01*
X107952380Y-95738095D01*
X108000000Y-95785714D01*
X108047619Y-95880952D01*
X108047619Y-96119047D01*
X108000000Y-96261904D01*
X108047619Y-96595238D02*
X107047619Y-96833333D01*
X107761904Y-97023809D01*
X107047619Y-97214285D01*
X108047619Y-97452380D01*
X107714285Y-98261904D02*
X107047619Y-98261904D01*
X108095238Y-98023809D02*
X107380952Y-97785714D01*
X107380952Y-98404761D01*
X108047619Y-98690476D02*
X108047619Y-99309523D01*
X107666666Y-98976190D01*
X107666666Y-99119047D01*
X107619047Y-99214285D01*
X107571428Y-99261904D01*
X107476190Y-99309523D01*
X107238095Y-99309523D01*
X107142857Y-99261904D01*
X107095238Y-99214285D01*
X107047619Y-99119047D01*
X107047619Y-98833333D01*
X107095238Y-98738095D01*
X107142857Y-98690476D01*
%TO.C,SW14*%
X145690476Y-43654761D02*
X145833333Y-43702380D01*
X146071428Y-43702380D01*
X146166666Y-43654761D01*
X146214285Y-43607142D01*
X146261904Y-43511904D01*
X146261904Y-43416666D01*
X146214285Y-43321428D01*
X146166666Y-43273809D01*
X146071428Y-43226190D01*
X145880952Y-43178571D01*
X145785714Y-43130952D01*
X145738095Y-43083333D01*
X145690476Y-42988095D01*
X145690476Y-42892857D01*
X145738095Y-42797619D01*
X145785714Y-42750000D01*
X145880952Y-42702380D01*
X146119047Y-42702380D01*
X146261904Y-42750000D01*
X146595238Y-42702380D02*
X146833333Y-43702380D01*
X147023809Y-42988095D01*
X147214285Y-43702380D01*
X147452380Y-42702380D01*
X148357142Y-43702380D02*
X147785714Y-43702380D01*
X148071428Y-43702380D02*
X148071428Y-42702380D01*
X147976190Y-42845238D01*
X147880952Y-42940476D01*
X147785714Y-42988095D01*
X149214285Y-43035714D02*
X149214285Y-43702380D01*
X148976190Y-42654761D02*
X148738095Y-43369047D01*
X149357142Y-43369047D01*
%TO.C,SW24*%
X145690476Y-61154761D02*
X145833333Y-61202380D01*
X146071428Y-61202380D01*
X146166666Y-61154761D01*
X146214285Y-61107142D01*
X146261904Y-61011904D01*
X146261904Y-60916666D01*
X146214285Y-60821428D01*
X146166666Y-60773809D01*
X146071428Y-60726190D01*
X145880952Y-60678571D01*
X145785714Y-60630952D01*
X145738095Y-60583333D01*
X145690476Y-60488095D01*
X145690476Y-60392857D01*
X145738095Y-60297619D01*
X145785714Y-60250000D01*
X145880952Y-60202380D01*
X146119047Y-60202380D01*
X146261904Y-60250000D01*
X146595238Y-60202380D02*
X146833333Y-61202380D01*
X147023809Y-60488095D01*
X147214285Y-61202380D01*
X147452380Y-60202380D01*
X147785714Y-60297619D02*
X147833333Y-60250000D01*
X147928571Y-60202380D01*
X148166666Y-60202380D01*
X148261904Y-60250000D01*
X148309523Y-60297619D01*
X148357142Y-60392857D01*
X148357142Y-60488095D01*
X148309523Y-60630952D01*
X147738095Y-61202380D01*
X148357142Y-61202380D01*
X149214285Y-60535714D02*
X149214285Y-61202380D01*
X148976190Y-60154761D02*
X148738095Y-60869047D01*
X149357142Y-60869047D01*
%TO.C,U1*%
X68903856Y-61921654D02*
X68446713Y-61921654D01*
X68675285Y-61921654D02*
X68675285Y-61121654D01*
X68599094Y-61235940D01*
X68522904Y-61312130D01*
X68446713Y-61350226D01*
X69399094Y-61121654D02*
X69475285Y-61121654D01*
X69551475Y-61159750D01*
X69589570Y-61197845D01*
X69627666Y-61274035D01*
X69665761Y-61426416D01*
X69665761Y-61616892D01*
X69627666Y-61769273D01*
X69589570Y-61845464D01*
X69551475Y-61883559D01*
X69475285Y-61921654D01*
X69399094Y-61921654D01*
X69322904Y-61883559D01*
X69284809Y-61845464D01*
X69246713Y-61769273D01*
X69208618Y-61616892D01*
X69208618Y-61426416D01*
X69246713Y-61274035D01*
X69284809Y-61197845D01*
X69322904Y-61159750D01*
X69399094Y-61121654D01*
X70351475Y-61388321D02*
X70351475Y-61921654D01*
X70160999Y-61083559D02*
X69970523Y-61654988D01*
X70465761Y-61654988D01*
X57829475Y-56841654D02*
X57372332Y-56841654D01*
X57600904Y-56841654D02*
X57600904Y-56041654D01*
X57524713Y-56155940D01*
X57448523Y-56232130D01*
X57372332Y-56270226D01*
X58591380Y-56841654D02*
X58134237Y-56841654D01*
X58362809Y-56841654D02*
X58362809Y-56041654D01*
X58286618Y-56155940D01*
X58210428Y-56232130D01*
X58134237Y-56270226D01*
X58858047Y-56041654D02*
X59353285Y-56041654D01*
X59086618Y-56346416D01*
X59200904Y-56346416D01*
X59277094Y-56384511D01*
X59315189Y-56422607D01*
X59353285Y-56498797D01*
X59353285Y-56689273D01*
X59315189Y-56765464D01*
X59277094Y-56803559D01*
X59200904Y-56841654D01*
X58972332Y-56841654D01*
X58896142Y-56803559D01*
X58858047Y-56765464D01*
X68903856Y-56841654D02*
X68446713Y-56841654D01*
X68675285Y-56841654D02*
X68675285Y-56041654D01*
X68599094Y-56155940D01*
X68522904Y-56232130D01*
X68446713Y-56270226D01*
X69399094Y-56041654D02*
X69475285Y-56041654D01*
X69551475Y-56079750D01*
X69589570Y-56117845D01*
X69627666Y-56194035D01*
X69665761Y-56346416D01*
X69665761Y-56536892D01*
X69627666Y-56689273D01*
X69589570Y-56765464D01*
X69551475Y-56803559D01*
X69475285Y-56841654D01*
X69399094Y-56841654D01*
X69322904Y-56803559D01*
X69284809Y-56765464D01*
X69246713Y-56689273D01*
X69208618Y-56536892D01*
X69208618Y-56346416D01*
X69246713Y-56194035D01*
X69284809Y-56117845D01*
X69322904Y-56079750D01*
X69399094Y-56041654D01*
X70160999Y-56041654D02*
X70237190Y-56041654D01*
X70313380Y-56079750D01*
X70351475Y-56117845D01*
X70389570Y-56194035D01*
X70427666Y-56346416D01*
X70427666Y-56536892D01*
X70389570Y-56689273D01*
X70351475Y-56765464D01*
X70313380Y-56803559D01*
X70237190Y-56841654D01*
X70160999Y-56841654D01*
X70084809Y-56803559D01*
X70046713Y-56765464D01*
X70008618Y-56689273D01*
X69970523Y-56536892D01*
X69970523Y-56346416D01*
X70008618Y-56194035D01*
X70046713Y-56117845D01*
X70084809Y-56079750D01*
X70160999Y-56041654D01*
X57562809Y-50961654D02*
X57638999Y-50961654D01*
X57715189Y-50999750D01*
X57753285Y-51037845D01*
X57791380Y-51114035D01*
X57829475Y-51266416D01*
X57829475Y-51456892D01*
X57791380Y-51609273D01*
X57753285Y-51685464D01*
X57715189Y-51723559D01*
X57638999Y-51761654D01*
X57562809Y-51761654D01*
X57486618Y-51723559D01*
X57448523Y-51685464D01*
X57410428Y-51609273D01*
X57372332Y-51456892D01*
X57372332Y-51266416D01*
X57410428Y-51114035D01*
X57448523Y-51037845D01*
X57486618Y-50999750D01*
X57562809Y-50961654D01*
X58324713Y-50961654D02*
X58400904Y-50961654D01*
X58477094Y-50999750D01*
X58515189Y-51037845D01*
X58553285Y-51114035D01*
X58591380Y-51266416D01*
X58591380Y-51456892D01*
X58553285Y-51609273D01*
X58515189Y-51685464D01*
X58477094Y-51723559D01*
X58400904Y-51761654D01*
X58324713Y-51761654D01*
X58248523Y-51723559D01*
X58210428Y-51685464D01*
X58172332Y-51609273D01*
X58134237Y-51456892D01*
X58134237Y-51266416D01*
X58172332Y-51114035D01*
X58210428Y-51037845D01*
X58248523Y-50999750D01*
X58324713Y-50961654D01*
X58896142Y-51037845D02*
X58934237Y-50999750D01*
X59010428Y-50961654D01*
X59200904Y-50961654D01*
X59277094Y-50999750D01*
X59315189Y-51037845D01*
X59353285Y-51114035D01*
X59353285Y-51190226D01*
X59315189Y-51304511D01*
X58858047Y-51761654D01*
X59353285Y-51761654D01*
X57873904Y-36521654D02*
X57607237Y-36140702D01*
X57416761Y-36521654D02*
X57416761Y-35721654D01*
X57721523Y-35721654D01*
X57797713Y-35759750D01*
X57835808Y-35797845D01*
X57873904Y-35874035D01*
X57873904Y-35988321D01*
X57835808Y-36064511D01*
X57797713Y-36102607D01*
X57721523Y-36140702D01*
X57416761Y-36140702D01*
X58178665Y-36293083D02*
X58559618Y-36293083D01*
X58102475Y-36521654D02*
X58369142Y-35721654D01*
X58635808Y-36521654D01*
X58826285Y-35721654D02*
X59016761Y-36521654D01*
X59169142Y-35950226D01*
X59321523Y-36521654D01*
X59511999Y-35721654D01*
X57835809Y-38299750D02*
X57759618Y-38261654D01*
X57645333Y-38261654D01*
X57531047Y-38299750D01*
X57454856Y-38375940D01*
X57416761Y-38452130D01*
X57378666Y-38604511D01*
X57378666Y-38718797D01*
X57416761Y-38871178D01*
X57454856Y-38947369D01*
X57531047Y-39023559D01*
X57645333Y-39061654D01*
X57721523Y-39061654D01*
X57835809Y-39023559D01*
X57873904Y-38985464D01*
X57873904Y-38718797D01*
X57721523Y-38718797D01*
X58216761Y-39061654D02*
X58216761Y-38261654D01*
X58673904Y-39061654D01*
X58673904Y-38261654D01*
X59054856Y-39061654D02*
X59054856Y-38261654D01*
X59245333Y-38261654D01*
X59359618Y-38299750D01*
X59435809Y-38375940D01*
X59473904Y-38452130D01*
X59511999Y-38604511D01*
X59511999Y-38718797D01*
X59473904Y-38871178D01*
X59435809Y-38947369D01*
X59359618Y-39023559D01*
X59245333Y-39061654D01*
X59054856Y-39061654D01*
X68637190Y-35721654D02*
X68713380Y-35721654D01*
X68789570Y-35759750D01*
X68827666Y-35797845D01*
X68865761Y-35874035D01*
X68903856Y-36026416D01*
X68903856Y-36216892D01*
X68865761Y-36369273D01*
X68827666Y-36445464D01*
X68789570Y-36483559D01*
X68713380Y-36521654D01*
X68637190Y-36521654D01*
X68560999Y-36483559D01*
X68522904Y-36445464D01*
X68484809Y-36369273D01*
X68446713Y-36216892D01*
X68446713Y-36026416D01*
X68484809Y-35874035D01*
X68522904Y-35797845D01*
X68560999Y-35759750D01*
X68637190Y-35721654D01*
X69399094Y-35721654D02*
X69475285Y-35721654D01*
X69551475Y-35759750D01*
X69589570Y-35797845D01*
X69627666Y-35874035D01*
X69665761Y-36026416D01*
X69665761Y-36216892D01*
X69627666Y-36369273D01*
X69589570Y-36445464D01*
X69551475Y-36483559D01*
X69475285Y-36521654D01*
X69399094Y-36521654D01*
X69322904Y-36483559D01*
X69284809Y-36445464D01*
X69246713Y-36369273D01*
X69208618Y-36216892D01*
X69208618Y-36026416D01*
X69246713Y-35874035D01*
X69284809Y-35797845D01*
X69322904Y-35759750D01*
X69399094Y-35721654D01*
X70351475Y-35721654D02*
X70199094Y-35721654D01*
X70122904Y-35759750D01*
X70084809Y-35797845D01*
X70008618Y-35912130D01*
X69970523Y-36064511D01*
X69970523Y-36369273D01*
X70008618Y-36445464D01*
X70046713Y-36483559D01*
X70122904Y-36521654D01*
X70275285Y-36521654D01*
X70351475Y-36483559D01*
X70389570Y-36445464D01*
X70427666Y-36369273D01*
X70427666Y-36178797D01*
X70389570Y-36102607D01*
X70351475Y-36064511D01*
X70275285Y-36026416D01*
X70122904Y-36026416D01*
X70046713Y-36064511D01*
X70008618Y-36102607D01*
X69970523Y-36178797D01*
X68751476Y-43379750D02*
X68675285Y-43341654D01*
X68561000Y-43341654D01*
X68446714Y-43379750D01*
X68370523Y-43455940D01*
X68332428Y-43532130D01*
X68294333Y-43684511D01*
X68294333Y-43798797D01*
X68332428Y-43951178D01*
X68370523Y-44027369D01*
X68446714Y-44103559D01*
X68561000Y-44141654D01*
X68637190Y-44141654D01*
X68751476Y-44103559D01*
X68789571Y-44065464D01*
X68789571Y-43798797D01*
X68637190Y-43798797D01*
X69132428Y-44141654D02*
X69132428Y-43341654D01*
X69589571Y-44141654D01*
X69589571Y-43341654D01*
X69970523Y-44141654D02*
X69970523Y-43341654D01*
X70161000Y-43341654D01*
X70275285Y-43379750D01*
X70351476Y-43455940D01*
X70389571Y-43532130D01*
X70427666Y-43684511D01*
X70427666Y-43798797D01*
X70389571Y-43951178D01*
X70351476Y-44027369D01*
X70275285Y-44103559D01*
X70161000Y-44141654D01*
X69970523Y-44141654D01*
X68637190Y-38191654D02*
X68713380Y-38191654D01*
X68789570Y-38229750D01*
X68827666Y-38267845D01*
X68865761Y-38344035D01*
X68903856Y-38496416D01*
X68903856Y-38686892D01*
X68865761Y-38839273D01*
X68827666Y-38915464D01*
X68789570Y-38953559D01*
X68713380Y-38991654D01*
X68637190Y-38991654D01*
X68560999Y-38953559D01*
X68522904Y-38915464D01*
X68484809Y-38839273D01*
X68446713Y-38686892D01*
X68446713Y-38496416D01*
X68484809Y-38344035D01*
X68522904Y-38267845D01*
X68560999Y-38229750D01*
X68637190Y-38191654D01*
X69399094Y-38191654D02*
X69475285Y-38191654D01*
X69551475Y-38229750D01*
X69589570Y-38267845D01*
X69627666Y-38344035D01*
X69665761Y-38496416D01*
X69665761Y-38686892D01*
X69627666Y-38839273D01*
X69589570Y-38915464D01*
X69551475Y-38953559D01*
X69475285Y-38991654D01*
X69399094Y-38991654D01*
X69322904Y-38953559D01*
X69284809Y-38915464D01*
X69246713Y-38839273D01*
X69208618Y-38686892D01*
X69208618Y-38496416D01*
X69246713Y-38344035D01*
X69284809Y-38267845D01*
X69322904Y-38229750D01*
X69399094Y-38191654D01*
X70122904Y-38534511D02*
X70046713Y-38496416D01*
X70008618Y-38458321D01*
X69970523Y-38382130D01*
X69970523Y-38344035D01*
X70008618Y-38267845D01*
X70046713Y-38229750D01*
X70122904Y-38191654D01*
X70275285Y-38191654D01*
X70351475Y-38229750D01*
X70389570Y-38267845D01*
X70427666Y-38344035D01*
X70427666Y-38382130D01*
X70389570Y-38458321D01*
X70351475Y-38496416D01*
X70275285Y-38534511D01*
X70122904Y-38534511D01*
X70046713Y-38572607D01*
X70008618Y-38610702D01*
X69970523Y-38686892D01*
X69970523Y-38839273D01*
X70008618Y-38915464D01*
X70046713Y-38953559D01*
X70122904Y-38991654D01*
X70275285Y-38991654D01*
X70351475Y-38953559D01*
X70389570Y-38915464D01*
X70427666Y-38839273D01*
X70427666Y-38686892D01*
X70389570Y-38610702D01*
X70351475Y-38572607D01*
X70275285Y-38534511D01*
X68637190Y-45881654D02*
X68713380Y-45881654D01*
X68789570Y-45919750D01*
X68827666Y-45957845D01*
X68865761Y-46034035D01*
X68903856Y-46186416D01*
X68903856Y-46376892D01*
X68865761Y-46529273D01*
X68827666Y-46605464D01*
X68789570Y-46643559D01*
X68713380Y-46681654D01*
X68637190Y-46681654D01*
X68560999Y-46643559D01*
X68522904Y-46605464D01*
X68484809Y-46529273D01*
X68446713Y-46376892D01*
X68446713Y-46186416D01*
X68484809Y-46034035D01*
X68522904Y-45957845D01*
X68560999Y-45919750D01*
X68637190Y-45881654D01*
X69665761Y-46681654D02*
X69208618Y-46681654D01*
X69437190Y-46681654D02*
X69437190Y-45881654D01*
X69360999Y-45995940D01*
X69284809Y-46072130D01*
X69208618Y-46110226D01*
X69932428Y-45881654D02*
X70465761Y-45881654D01*
X70122904Y-46681654D01*
X57296142Y-43341654D02*
X57562809Y-44141654D01*
X57829475Y-43341654D01*
X58553285Y-44065464D02*
X58515189Y-44103559D01*
X58400904Y-44141654D01*
X58324713Y-44141654D01*
X58210428Y-44103559D01*
X58134237Y-44027369D01*
X58096142Y-43951178D01*
X58058047Y-43798797D01*
X58058047Y-43684511D01*
X58096142Y-43532130D01*
X58134237Y-43455940D01*
X58210428Y-43379750D01*
X58324713Y-43341654D01*
X58400904Y-43341654D01*
X58515189Y-43379750D01*
X58553285Y-43417845D01*
X59353285Y-44065464D02*
X59315189Y-44103559D01*
X59200904Y-44141654D01*
X59124713Y-44141654D01*
X59010428Y-44103559D01*
X58934237Y-44027369D01*
X58896142Y-43951178D01*
X58858047Y-43798797D01*
X58858047Y-43684511D01*
X58896142Y-43532130D01*
X58934237Y-43455940D01*
X59010428Y-43379750D01*
X59124713Y-43341654D01*
X59200904Y-43341654D01*
X59315189Y-43379750D01*
X59353285Y-43417845D01*
X57829475Y-54301654D02*
X57372332Y-54301654D01*
X57600904Y-54301654D02*
X57600904Y-53501654D01*
X57524713Y-53615940D01*
X57448523Y-53692130D01*
X57372332Y-53730226D01*
X58591380Y-54301654D02*
X58134237Y-54301654D01*
X58362809Y-54301654D02*
X58362809Y-53501654D01*
X58286618Y-53615940D01*
X58210428Y-53692130D01*
X58134237Y-53730226D01*
X59315189Y-53501654D02*
X58934237Y-53501654D01*
X58896142Y-53882607D01*
X58934237Y-53844511D01*
X59010428Y-53806416D01*
X59200904Y-53806416D01*
X59277094Y-53844511D01*
X59315189Y-53882607D01*
X59353285Y-53958797D01*
X59353285Y-54149273D01*
X59315189Y-54225464D01*
X59277094Y-54263559D01*
X59200904Y-54301654D01*
X59010428Y-54301654D01*
X58934237Y-54263559D01*
X58896142Y-54225464D01*
X57873904Y-41601654D02*
X57607238Y-41220702D01*
X57416761Y-41601654D02*
X57416761Y-40801654D01*
X57721523Y-40801654D01*
X57797714Y-40839750D01*
X57835809Y-40877845D01*
X57873904Y-40954035D01*
X57873904Y-41068321D01*
X57835809Y-41144511D01*
X57797714Y-41182607D01*
X57721523Y-41220702D01*
X57416761Y-41220702D01*
X58178666Y-41563559D02*
X58292952Y-41601654D01*
X58483428Y-41601654D01*
X58559619Y-41563559D01*
X58597714Y-41525464D01*
X58635809Y-41449273D01*
X58635809Y-41373083D01*
X58597714Y-41296892D01*
X58559619Y-41258797D01*
X58483428Y-41220702D01*
X58331047Y-41182607D01*
X58254857Y-41144511D01*
X58216761Y-41106416D01*
X58178666Y-41030226D01*
X58178666Y-40954035D01*
X58216761Y-40877845D01*
X58254857Y-40839750D01*
X58331047Y-40801654D01*
X58521523Y-40801654D01*
X58635809Y-40839750D01*
X58864380Y-40801654D02*
X59321523Y-40801654D01*
X59092952Y-41601654D02*
X59092952Y-40801654D01*
X57562809Y-48421654D02*
X57638999Y-48421654D01*
X57715189Y-48459750D01*
X57753285Y-48497845D01*
X57791380Y-48574035D01*
X57829475Y-48726416D01*
X57829475Y-48916892D01*
X57791380Y-49069273D01*
X57753285Y-49145464D01*
X57715189Y-49183559D01*
X57638999Y-49221654D01*
X57562809Y-49221654D01*
X57486618Y-49183559D01*
X57448523Y-49145464D01*
X57410428Y-49069273D01*
X57372332Y-48916892D01*
X57372332Y-48726416D01*
X57410428Y-48574035D01*
X57448523Y-48497845D01*
X57486618Y-48459750D01*
X57562809Y-48421654D01*
X58134237Y-48497845D02*
X58172332Y-48459750D01*
X58248523Y-48421654D01*
X58438999Y-48421654D01*
X58515189Y-48459750D01*
X58553285Y-48497845D01*
X58591380Y-48574035D01*
X58591380Y-48650226D01*
X58553285Y-48764511D01*
X58096142Y-49221654D01*
X58591380Y-49221654D01*
X58972332Y-49221654D02*
X59124713Y-49221654D01*
X59200904Y-49183559D01*
X59238999Y-49145464D01*
X59315189Y-49031178D01*
X59353285Y-48878797D01*
X59353285Y-48574035D01*
X59315189Y-48497845D01*
X59277094Y-48459750D01*
X59200904Y-48421654D01*
X59048523Y-48421654D01*
X58972332Y-48459750D01*
X58934237Y-48497845D01*
X58896142Y-48574035D01*
X58896142Y-48764511D01*
X58934237Y-48840702D01*
X58972332Y-48878797D01*
X59048523Y-48916892D01*
X59200904Y-48916892D01*
X59277094Y-48878797D01*
X59315189Y-48840702D01*
X59353285Y-48764511D01*
X68751476Y-40839750D02*
X68675285Y-40801654D01*
X68561000Y-40801654D01*
X68446714Y-40839750D01*
X68370523Y-40915940D01*
X68332428Y-40992130D01*
X68294333Y-41144511D01*
X68294333Y-41258797D01*
X68332428Y-41411178D01*
X68370523Y-41487369D01*
X68446714Y-41563559D01*
X68561000Y-41601654D01*
X68637190Y-41601654D01*
X68751476Y-41563559D01*
X68789571Y-41525464D01*
X68789571Y-41258797D01*
X68637190Y-41258797D01*
X69132428Y-41601654D02*
X69132428Y-40801654D01*
X69589571Y-41601654D01*
X69589571Y-40801654D01*
X69970523Y-41601654D02*
X69970523Y-40801654D01*
X70161000Y-40801654D01*
X70275285Y-40839750D01*
X70351476Y-40915940D01*
X70389571Y-40992130D01*
X70427666Y-41144511D01*
X70427666Y-41258797D01*
X70389571Y-41411178D01*
X70351476Y-41487369D01*
X70275285Y-41563559D01*
X70161000Y-41601654D01*
X69970523Y-41601654D01*
X68637190Y-53491654D02*
X68713380Y-53491654D01*
X68789570Y-53529750D01*
X68827666Y-53567845D01*
X68865761Y-53644035D01*
X68903856Y-53796416D01*
X68903856Y-53986892D01*
X68865761Y-54139273D01*
X68827666Y-54215464D01*
X68789570Y-54253559D01*
X68713380Y-54291654D01*
X68637190Y-54291654D01*
X68560999Y-54253559D01*
X68522904Y-54215464D01*
X68484809Y-54139273D01*
X68446713Y-53986892D01*
X68446713Y-53796416D01*
X68484809Y-53644035D01*
X68522904Y-53567845D01*
X68560999Y-53529750D01*
X68637190Y-53491654D01*
X69208618Y-53567845D02*
X69246713Y-53529750D01*
X69322904Y-53491654D01*
X69513380Y-53491654D01*
X69589570Y-53529750D01*
X69627666Y-53567845D01*
X69665761Y-53644035D01*
X69665761Y-53720226D01*
X69627666Y-53834511D01*
X69170523Y-54291654D01*
X69665761Y-54291654D01*
X70351475Y-53758321D02*
X70351475Y-54291654D01*
X70160999Y-53453559D02*
X69970523Y-54024988D01*
X70465761Y-54024988D01*
X57562809Y-61121654D02*
X57638999Y-61121654D01*
X57715189Y-61159750D01*
X57753285Y-61197845D01*
X57791380Y-61274035D01*
X57829475Y-61426416D01*
X57829475Y-61616892D01*
X57791380Y-61769273D01*
X57753285Y-61845464D01*
X57715189Y-61883559D01*
X57638999Y-61921654D01*
X57562809Y-61921654D01*
X57486618Y-61883559D01*
X57448523Y-61845464D01*
X57410428Y-61769273D01*
X57372332Y-61616892D01*
X57372332Y-61426416D01*
X57410428Y-61274035D01*
X57448523Y-61197845D01*
X57486618Y-61159750D01*
X57562809Y-61121654D01*
X58591380Y-61921654D02*
X58134237Y-61921654D01*
X58362809Y-61921654D02*
X58362809Y-61121654D01*
X58286618Y-61235940D01*
X58210428Y-61312130D01*
X58134237Y-61350226D01*
X59086618Y-61121654D02*
X59162809Y-61121654D01*
X59238999Y-61159750D01*
X59277094Y-61197845D01*
X59315189Y-61274035D01*
X59353285Y-61426416D01*
X59353285Y-61616892D01*
X59315189Y-61769273D01*
X59277094Y-61845464D01*
X59238999Y-61883559D01*
X59162809Y-61921654D01*
X59086618Y-61921654D01*
X59010428Y-61883559D01*
X58972332Y-61845464D01*
X58934237Y-61769273D01*
X58896142Y-61616892D01*
X58896142Y-61426416D01*
X58934237Y-61274035D01*
X58972332Y-61197845D01*
X59010428Y-61159750D01*
X59086618Y-61121654D01*
X57829475Y-59381654D02*
X57372332Y-59381654D01*
X57600904Y-59381654D02*
X57600904Y-58581654D01*
X57524713Y-58695940D01*
X57448523Y-58772130D01*
X57372332Y-58810226D01*
X58591380Y-59381654D02*
X58134237Y-59381654D01*
X58362809Y-59381654D02*
X58362809Y-58581654D01*
X58286618Y-58695940D01*
X58210428Y-58772130D01*
X58134237Y-58810226D01*
X59353285Y-59381654D02*
X58896142Y-59381654D01*
X59124713Y-59381654D02*
X59124713Y-58581654D01*
X59048523Y-58695940D01*
X58972332Y-58772130D01*
X58896142Y-58810226D01*
X68637190Y-48491654D02*
X68713380Y-48491654D01*
X68789570Y-48529750D01*
X68827666Y-48567845D01*
X68865761Y-48644035D01*
X68903856Y-48796416D01*
X68903856Y-48986892D01*
X68865761Y-49139273D01*
X68827666Y-49215464D01*
X68789570Y-49253559D01*
X68713380Y-49291654D01*
X68637190Y-49291654D01*
X68560999Y-49253559D01*
X68522904Y-49215464D01*
X68484809Y-49139273D01*
X68446713Y-48986892D01*
X68446713Y-48796416D01*
X68484809Y-48644035D01*
X68522904Y-48567845D01*
X68560999Y-48529750D01*
X68637190Y-48491654D01*
X69208618Y-48567845D02*
X69246713Y-48529750D01*
X69322904Y-48491654D01*
X69513380Y-48491654D01*
X69589570Y-48529750D01*
X69627666Y-48567845D01*
X69665761Y-48644035D01*
X69665761Y-48720226D01*
X69627666Y-48834511D01*
X69170523Y-49291654D01*
X69665761Y-49291654D01*
X70160999Y-48491654D02*
X70237190Y-48491654D01*
X70313380Y-48529750D01*
X70351475Y-48567845D01*
X70389570Y-48644035D01*
X70427666Y-48796416D01*
X70427666Y-48986892D01*
X70389570Y-49139273D01*
X70351475Y-49215464D01*
X70313380Y-49253559D01*
X70237190Y-49291654D01*
X70160999Y-49291654D01*
X70084809Y-49253559D01*
X70046713Y-49215464D01*
X70008618Y-49139273D01*
X69970523Y-48986892D01*
X69970523Y-48796416D01*
X70008618Y-48644035D01*
X70046713Y-48567845D01*
X70084809Y-48529750D01*
X70160999Y-48491654D01*
X57562809Y-45881654D02*
X57638999Y-45881654D01*
X57715189Y-45919750D01*
X57753285Y-45957845D01*
X57791380Y-46034035D01*
X57829475Y-46186416D01*
X57829475Y-46376892D01*
X57791380Y-46529273D01*
X57753285Y-46605464D01*
X57715189Y-46643559D01*
X57638999Y-46681654D01*
X57562809Y-46681654D01*
X57486618Y-46643559D01*
X57448523Y-46605464D01*
X57410428Y-46529273D01*
X57372332Y-46376892D01*
X57372332Y-46186416D01*
X57410428Y-46034035D01*
X57448523Y-45957845D01*
X57486618Y-45919750D01*
X57562809Y-45881654D01*
X58096142Y-45881654D02*
X58591380Y-45881654D01*
X58324713Y-46186416D01*
X58438999Y-46186416D01*
X58515189Y-46224511D01*
X58553285Y-46262607D01*
X58591380Y-46338797D01*
X58591380Y-46529273D01*
X58553285Y-46605464D01*
X58515189Y-46643559D01*
X58438999Y-46681654D01*
X58210428Y-46681654D01*
X58134237Y-46643559D01*
X58096142Y-46605464D01*
X59353285Y-46681654D02*
X58896142Y-46681654D01*
X59124713Y-46681654D02*
X59124713Y-45881654D01*
X59048523Y-45995940D01*
X58972332Y-46072130D01*
X58896142Y-46110226D01*
X68637190Y-50991654D02*
X68713380Y-50991654D01*
X68789570Y-51029750D01*
X68827666Y-51067845D01*
X68865761Y-51144035D01*
X68903856Y-51296416D01*
X68903856Y-51486892D01*
X68865761Y-51639273D01*
X68827666Y-51715464D01*
X68789570Y-51753559D01*
X68713380Y-51791654D01*
X68637190Y-51791654D01*
X68560999Y-51753559D01*
X68522904Y-51715464D01*
X68484809Y-51639273D01*
X68446713Y-51486892D01*
X68446713Y-51296416D01*
X68484809Y-51144035D01*
X68522904Y-51067845D01*
X68560999Y-51029750D01*
X68637190Y-50991654D01*
X69208618Y-51067845D02*
X69246713Y-51029750D01*
X69322904Y-50991654D01*
X69513380Y-50991654D01*
X69589570Y-51029750D01*
X69627666Y-51067845D01*
X69665761Y-51144035D01*
X69665761Y-51220226D01*
X69627666Y-51334511D01*
X69170523Y-51791654D01*
X69665761Y-51791654D01*
X69970523Y-51067845D02*
X70008618Y-51029750D01*
X70084809Y-50991654D01*
X70275285Y-50991654D01*
X70351475Y-51029750D01*
X70389570Y-51067845D01*
X70427666Y-51144035D01*
X70427666Y-51220226D01*
X70389570Y-51334511D01*
X69932428Y-51791654D01*
X70427666Y-51791654D01*
D12*
%TO.C,D24*%
X137950000Y-61250000D02*
X138250000Y-61650000D01*
X137950000Y-61750000D02*
X138550000Y-61750000D01*
X138796100Y-62274700D02*
X138796100Y-60725300D01*
X138250000Y-61250000D02*
X138250000Y-61050000D01*
X137703900Y-60725300D02*
X137703900Y-62274700D01*
X138250000Y-61750000D02*
X138250000Y-61950000D01*
X138550000Y-61250000D02*
X137950000Y-61250000D01*
X138250000Y-61650000D02*
X138550000Y-61250000D01*
%TO.C,D22*%
X100950000Y-61250000D02*
X101250000Y-61650000D01*
X100950000Y-61750000D02*
X101550000Y-61750000D01*
X101796100Y-62274700D02*
X101796100Y-60725300D01*
X101250000Y-61250000D02*
X101250000Y-61050000D01*
X100703900Y-60725300D02*
X100703900Y-62274700D01*
X101250000Y-61750000D02*
X101250000Y-61950000D01*
X101550000Y-61250000D02*
X100950000Y-61250000D01*
X101250000Y-61650000D02*
X101550000Y-61250000D01*
%TO.C,D41*%
X63250000Y-105700000D02*
X62850000Y-106000000D01*
X62750000Y-105700000D02*
X62750000Y-106300000D01*
X62225300Y-106546100D02*
X63774700Y-106546100D01*
X63250000Y-106000000D02*
X63450000Y-106000000D01*
X63774700Y-105453900D02*
X62225300Y-105453900D01*
X62750000Y-106000000D02*
X62550000Y-106000000D01*
X63250000Y-106300000D02*
X63250000Y-105700000D01*
X62850000Y-106000000D02*
X63250000Y-106300000D01*
%TO.C,D11*%
X82450000Y-43750000D02*
X82750000Y-44150000D01*
X82450000Y-44250000D02*
X83050000Y-44250000D01*
X83296100Y-44774700D02*
X83296100Y-43225300D01*
X82750000Y-43750000D02*
X82750000Y-43550000D01*
X82203900Y-43225300D02*
X82203900Y-44774700D01*
X82750000Y-44250000D02*
X82750000Y-44450000D01*
X83050000Y-43750000D02*
X82450000Y-43750000D01*
X82750000Y-44150000D02*
X83050000Y-43750000D01*
%TO.C,D31*%
X82450000Y-78750000D02*
X82750000Y-79150000D01*
X82450000Y-79250000D02*
X83050000Y-79250000D01*
X83296100Y-79774700D02*
X83296100Y-78225300D01*
X82750000Y-78750000D02*
X82750000Y-78550000D01*
X82203900Y-78225300D02*
X82203900Y-79774700D01*
X82750000Y-79250000D02*
X82750000Y-79450000D01*
X83050000Y-78750000D02*
X82450000Y-78750000D01*
X82750000Y-79150000D02*
X83050000Y-78750000D01*
%TO.C,D13*%
X119450000Y-43750000D02*
X119750000Y-44150000D01*
X119450000Y-44250000D02*
X120050000Y-44250000D01*
X120296100Y-44774700D02*
X120296100Y-43225300D01*
X119750000Y-43750000D02*
X119750000Y-43550000D01*
X119203900Y-43225300D02*
X119203900Y-44774700D01*
X119750000Y-44250000D02*
X119750000Y-44450000D01*
X120050000Y-43750000D02*
X119450000Y-43750000D01*
X119750000Y-44150000D02*
X120050000Y-43750000D01*
%TO.C,D33*%
X119450000Y-78750000D02*
X119750000Y-79150000D01*
X119450000Y-79250000D02*
X120050000Y-79250000D01*
X120296100Y-79774700D02*
X120296100Y-78225300D01*
X119750000Y-78750000D02*
X119750000Y-78550000D01*
X119203900Y-78225300D02*
X119203900Y-79774700D01*
X119750000Y-79250000D02*
X119750000Y-79450000D01*
X120050000Y-78750000D02*
X119450000Y-78750000D01*
X119750000Y-79150000D02*
X120050000Y-78750000D01*
%TO.C,D14*%
X137950000Y-43750000D02*
X138250000Y-44150000D01*
X137950000Y-44250000D02*
X138550000Y-44250000D01*
X138796100Y-44774700D02*
X138796100Y-43225300D01*
X138250000Y-43750000D02*
X138250000Y-43550000D01*
X137703900Y-43225300D02*
X137703900Y-44774700D01*
X138250000Y-44250000D02*
X138250000Y-44450000D01*
X138550000Y-43750000D02*
X137950000Y-43750000D01*
X138250000Y-44150000D02*
X138550000Y-43750000D01*
%TO.C,D21*%
X82450000Y-61250000D02*
X82750000Y-61650000D01*
X82450000Y-61750000D02*
X83050000Y-61750000D01*
X83296100Y-62274700D02*
X83296100Y-60725300D01*
X82750000Y-61250000D02*
X82750000Y-61050000D01*
X82203900Y-60725300D02*
X82203900Y-62274700D01*
X82750000Y-61750000D02*
X82750000Y-61950000D01*
X83050000Y-61250000D02*
X82450000Y-61250000D01*
X82750000Y-61650000D02*
X83050000Y-61250000D01*
%TO.C,D32*%
X100950000Y-78750000D02*
X101250000Y-79150000D01*
X100950000Y-79250000D02*
X101550000Y-79250000D01*
X101796100Y-79774700D02*
X101796100Y-78225300D01*
X101250000Y-78750000D02*
X101250000Y-78550000D01*
X100703900Y-78225300D02*
X100703900Y-79774700D01*
X101250000Y-79250000D02*
X101250000Y-79450000D01*
X101550000Y-78750000D02*
X100950000Y-78750000D01*
X101250000Y-79150000D02*
X101550000Y-78750000D01*
%TO.C,D23*%
X119450000Y-61250000D02*
X119750000Y-61650000D01*
X119450000Y-61750000D02*
X120050000Y-61750000D01*
X120296100Y-62274700D02*
X120296100Y-60725300D01*
X119750000Y-61250000D02*
X119750000Y-61050000D01*
X119203900Y-60725300D02*
X119203900Y-62274700D01*
X119750000Y-61750000D02*
X119750000Y-61950000D01*
X120050000Y-61250000D02*
X119450000Y-61250000D01*
X119750000Y-61650000D02*
X120050000Y-61250000D01*
%TO.C,D12*%
X100950000Y-43750000D02*
X101250000Y-44150000D01*
X100950000Y-44250000D02*
X101550000Y-44250000D01*
X101796100Y-44774700D02*
X101796100Y-43225300D01*
X101250000Y-43750000D02*
X101250000Y-43550000D01*
X100703900Y-43225300D02*
X100703900Y-44774700D01*
X101250000Y-44250000D02*
X101250000Y-44450000D01*
X101550000Y-43750000D02*
X100950000Y-43750000D01*
X101250000Y-44150000D02*
X101550000Y-43750000D01*
%TO.C,D26*%
X174950000Y-61250000D02*
X175250000Y-61650000D01*
X174950000Y-61750000D02*
X175550000Y-61750000D01*
X175796100Y-62274700D02*
X175796100Y-60725300D01*
X175250000Y-61250000D02*
X175250000Y-61050000D01*
X174703900Y-60725300D02*
X174703900Y-62274700D01*
X175250000Y-61750000D02*
X175250000Y-61950000D01*
X175550000Y-61250000D02*
X174950000Y-61250000D01*
X175250000Y-61650000D02*
X175550000Y-61250000D01*
%TO.C,D34*%
X137950000Y-78750000D02*
X138250000Y-79150000D01*
X137950000Y-79250000D02*
X138550000Y-79250000D01*
X138796100Y-79774700D02*
X138796100Y-78225300D01*
X138250000Y-78750000D02*
X138250000Y-78550000D01*
X137703900Y-78225300D02*
X137703900Y-79774700D01*
X138250000Y-79250000D02*
X138250000Y-79450000D01*
X138550000Y-78750000D02*
X137950000Y-78750000D01*
X138250000Y-79150000D02*
X138550000Y-78750000D01*
%TO.C,D35*%
X156450000Y-78750000D02*
X156750000Y-79150000D01*
X156450000Y-79250000D02*
X157050000Y-79250000D01*
X157296100Y-79774700D02*
X157296100Y-78225300D01*
X156750000Y-78750000D02*
X156750000Y-78550000D01*
X156203900Y-78225300D02*
X156203900Y-79774700D01*
X156750000Y-79250000D02*
X156750000Y-79450000D01*
X157050000Y-78750000D02*
X156450000Y-78750000D01*
X156750000Y-79150000D02*
X157050000Y-78750000D01*
%TO.C,D15*%
X156450000Y-43750000D02*
X156750000Y-44150000D01*
X156450000Y-44250000D02*
X157050000Y-44250000D01*
X157296100Y-44774700D02*
X157296100Y-43225300D01*
X156750000Y-43750000D02*
X156750000Y-43550000D01*
X156203900Y-43225300D02*
X156203900Y-44774700D01*
X156750000Y-44250000D02*
X156750000Y-44450000D01*
X157050000Y-43750000D02*
X156450000Y-43750000D01*
X156750000Y-44150000D02*
X157050000Y-43750000D01*
%TO.C,D42*%
X82750000Y-93700000D02*
X82350000Y-94000000D01*
X82250000Y-93700000D02*
X82250000Y-94300000D01*
X81725300Y-94546100D02*
X83274700Y-94546100D01*
X82750000Y-94000000D02*
X82950000Y-94000000D01*
X83274700Y-93453900D02*
X81725300Y-93453900D01*
X82250000Y-94000000D02*
X82050000Y-94000000D01*
X82750000Y-94300000D02*
X82750000Y-93700000D01*
X82350000Y-94000000D02*
X82750000Y-94300000D01*
%TO.C,D25*%
X156450000Y-61250000D02*
X156750000Y-61650000D01*
X156450000Y-61750000D02*
X157050000Y-61750000D01*
X157296100Y-62274700D02*
X157296100Y-60725300D01*
X156750000Y-61250000D02*
X156750000Y-61050000D01*
X156203900Y-60725300D02*
X156203900Y-62274700D01*
X156750000Y-61750000D02*
X156750000Y-61950000D01*
X157050000Y-61250000D02*
X156450000Y-61250000D01*
X156750000Y-61650000D02*
X157050000Y-61250000D01*
%TO.C,D43*%
X106750000Y-87700000D02*
X106350000Y-88000000D01*
X106250000Y-87700000D02*
X106250000Y-88300000D01*
X105725300Y-88546100D02*
X107274700Y-88546100D01*
X106750000Y-88000000D02*
X106950000Y-88000000D01*
X107274700Y-87453900D02*
X105725300Y-87453900D01*
X106250000Y-88000000D02*
X106050000Y-88000000D01*
X106750000Y-88300000D02*
X106750000Y-87700000D01*
X106350000Y-88000000D02*
X106750000Y-88300000D01*
%TO.C,RSW1*%
X75674300Y-42125700D02*
X80525700Y-42125700D01*
X75674300Y-39053440D02*
X75674300Y-40346560D01*
X80525700Y-40346560D02*
X80525700Y-39053440D01*
X80525700Y-37274300D02*
X75674300Y-37274300D01*
%TO.C,L3*%
X75250000Y-42762847D02*
X75250000Y-43837847D01*
X81150000Y-42762847D02*
X75250000Y-42762847D01*
X81150000Y-46662847D02*
X75250000Y-46662847D01*
%TO.C,J1*%
X81273400Y-57575700D02*
X75126600Y-57575700D01*
X81273400Y-65424300D02*
X81273400Y-57575700D01*
X75126600Y-57575700D02*
X75126600Y-65424300D01*
X75126600Y-65424300D02*
X81273400Y-65424300D01*
%TO.C,SW_POWER1*%
X79400000Y-30934914D02*
X78500000Y-30934914D01*
X78300000Y-31144914D02*
X78500000Y-30934914D01*
X74750000Y-33444914D02*
X74750000Y-34234914D01*
X79600000Y-31144914D02*
X79400000Y-30934914D01*
X81650000Y-34234914D02*
X81650000Y-33444914D01*
X78300000Y-31144914D02*
X78300000Y-32434914D01*
X76800000Y-35284914D02*
X76600000Y-35284914D01*
X81050000Y-32434914D02*
X75350000Y-32434914D01*
X79600000Y-32434914D02*
X79600000Y-31144914D01*
X79800000Y-35284914D02*
X78100000Y-35284914D01*
%TO.C,L2*%
X81150000Y-51728294D02*
X75250000Y-51728294D01*
X81150000Y-47828294D02*
X75250000Y-47828294D01*
X75250000Y-47828294D02*
X75250000Y-48903294D01*
%TO.C,L1*%
X81150000Y-52937036D02*
X75250000Y-52937036D01*
X75250000Y-52937036D02*
X75250000Y-54012036D01*
X81150000Y-56837036D02*
X75250000Y-56837036D01*
D13*
%TO.C,U1*%
X72790000Y-65369750D02*
X55010000Y-65369750D01*
X55010000Y-65369750D02*
X55010000Y-32349750D01*
X72790000Y-32349750D02*
X72790000Y-65369750D01*
X55010000Y-32349750D02*
X72790000Y-32349750D01*
%TD*%
D14*
%TO.C,U1*%
X71520000Y-36159750D03*
X71520000Y-38699750D03*
X71520000Y-41239750D03*
X71520000Y-43779750D03*
X71520000Y-46319750D03*
X71520000Y-48859750D03*
X71520000Y-51399750D03*
X71520000Y-53939750D03*
X71520000Y-56479750D03*
X71520000Y-59019750D03*
X71520000Y-61559750D03*
X71520000Y-64099750D03*
X56280000Y-64099750D03*
X56280000Y-61559750D03*
X56280000Y-59019750D03*
X56280000Y-56479750D03*
X56280000Y-53939750D03*
X56280000Y-51399750D03*
X56280000Y-48859750D03*
X56280000Y-46319750D03*
X56280000Y-43779750D03*
X56280000Y-41239750D03*
X56280000Y-38699750D03*
X56280000Y-36159750D03*
X68980000Y-59019750D03*
X66440000Y-59019750D03*
X63900000Y-59019750D03*
%TD*%
M02*
