%TF.GenerationSoftware,KiCad,Pcbnew,(6.0.7-1)-1*%
%TF.CreationDate,2022-10-16T21:29:02-07:00*%
%TF.ProjectId,karn-left,6b61726e-2d6c-4656-9674-2e6b69636164,rev?*%
%TF.SameCoordinates,Original*%
%TF.FileFunction,Legend,Bot*%
%TF.FilePolarity,Positive*%
%FSLAX46Y46*%
G04 Gerber Fmt 4.6, Leading zero omitted, Abs format (unit mm)*
G04 Created by KiCad (PCBNEW (6.0.7-1)-1) date 2022-10-16 21:29:02*
%MOMM*%
%LPD*%
G01*
G04 APERTURE LIST*
%ADD10C,0.150000*%
%ADD11C,0.381000*%
%ADD12C,1.752600*%
G04 APERTURE END LIST*
D10*
%TO.C,U1*%
X184170523Y-57398654D02*
X184627666Y-57398654D01*
X184399094Y-57398654D02*
X184399094Y-56598654D01*
X184475285Y-56712940D01*
X184551475Y-56789130D01*
X184627666Y-56827226D01*
X183675285Y-56598654D02*
X183599094Y-56598654D01*
X183522904Y-56636750D01*
X183484809Y-56674845D01*
X183446713Y-56751035D01*
X183408618Y-56903416D01*
X183408618Y-57093892D01*
X183446713Y-57246273D01*
X183484809Y-57322464D01*
X183522904Y-57360559D01*
X183599094Y-57398654D01*
X183675285Y-57398654D01*
X183751475Y-57360559D01*
X183789570Y-57322464D01*
X183827666Y-57246273D01*
X183865761Y-57093892D01*
X183865761Y-56903416D01*
X183827666Y-56751035D01*
X183789570Y-56674845D01*
X183751475Y-56636750D01*
X183675285Y-56598654D01*
X182913380Y-56598654D02*
X182837190Y-56598654D01*
X182760999Y-56636750D01*
X182722904Y-56674845D01*
X182684809Y-56751035D01*
X182646713Y-56903416D01*
X182646713Y-57093892D01*
X182684809Y-57246273D01*
X182722904Y-57322464D01*
X182760999Y-57360559D01*
X182837190Y-57398654D01*
X182913380Y-57398654D01*
X182989570Y-57360559D01*
X183027666Y-57322464D01*
X183065761Y-57246273D01*
X183103856Y-57093892D01*
X183103856Y-56903416D01*
X183065761Y-56751035D01*
X183027666Y-56674845D01*
X182989570Y-56636750D01*
X182913380Y-56598654D01*
X172950095Y-42158654D02*
X173216761Y-41777702D01*
X173407238Y-42158654D02*
X173407238Y-41358654D01*
X173102476Y-41358654D01*
X173026285Y-41396750D01*
X172988190Y-41434845D01*
X172950095Y-41511035D01*
X172950095Y-41625321D01*
X172988190Y-41701511D01*
X173026285Y-41739607D01*
X173102476Y-41777702D01*
X173407238Y-41777702D01*
X172645333Y-42120559D02*
X172531047Y-42158654D01*
X172340571Y-42158654D01*
X172264380Y-42120559D01*
X172226285Y-42082464D01*
X172188190Y-42006273D01*
X172188190Y-41930083D01*
X172226285Y-41853892D01*
X172264380Y-41815797D01*
X172340571Y-41777702D01*
X172492952Y-41739607D01*
X172569142Y-41701511D01*
X172607238Y-41663416D01*
X172645333Y-41587226D01*
X172645333Y-41511035D01*
X172607238Y-41434845D01*
X172569142Y-41396750D01*
X172492952Y-41358654D01*
X172302476Y-41358654D01*
X172188190Y-41396750D01*
X171959619Y-41358654D02*
X171502476Y-41358654D01*
X171731047Y-42158654D02*
X171731047Y-41358654D01*
X184170523Y-43936750D02*
X184246714Y-43898654D01*
X184361000Y-43898654D01*
X184475285Y-43936750D01*
X184551476Y-44012940D01*
X184589571Y-44089130D01*
X184627666Y-44241511D01*
X184627666Y-44355797D01*
X184589571Y-44508178D01*
X184551476Y-44584369D01*
X184475285Y-44660559D01*
X184361000Y-44698654D01*
X184284809Y-44698654D01*
X184170523Y-44660559D01*
X184132428Y-44622464D01*
X184132428Y-44355797D01*
X184284809Y-44355797D01*
X183789571Y-44698654D02*
X183789571Y-43898654D01*
X183332428Y-44698654D01*
X183332428Y-43898654D01*
X182951476Y-44698654D02*
X182951476Y-43898654D01*
X182761000Y-43898654D01*
X182646714Y-43936750D01*
X182570523Y-44012940D01*
X182532428Y-44089130D01*
X182494333Y-44241511D01*
X182494333Y-44355797D01*
X182532428Y-44508178D01*
X182570523Y-44584369D01*
X182646714Y-44660559D01*
X182761000Y-44698654D01*
X182951476Y-44698654D01*
X173096142Y-57398654D02*
X173553285Y-57398654D01*
X173324713Y-57398654D02*
X173324713Y-56598654D01*
X173400904Y-56712940D01*
X173477094Y-56789130D01*
X173553285Y-56827226D01*
X172334237Y-57398654D02*
X172791380Y-57398654D01*
X172562809Y-57398654D02*
X172562809Y-56598654D01*
X172638999Y-56712940D01*
X172715189Y-56789130D01*
X172791380Y-56827226D01*
X172067570Y-56598654D02*
X171572332Y-56598654D01*
X171838999Y-56903416D01*
X171724713Y-56903416D01*
X171648523Y-56941511D01*
X171610428Y-56979607D01*
X171572332Y-57055797D01*
X171572332Y-57246273D01*
X171610428Y-57322464D01*
X171648523Y-57360559D01*
X171724713Y-57398654D01*
X171953285Y-57398654D01*
X172029475Y-57360559D01*
X172067570Y-57322464D01*
X184437190Y-38748654D02*
X184360999Y-38748654D01*
X184284809Y-38786750D01*
X184246713Y-38824845D01*
X184208618Y-38901035D01*
X184170523Y-39053416D01*
X184170523Y-39243892D01*
X184208618Y-39396273D01*
X184246713Y-39472464D01*
X184284809Y-39510559D01*
X184360999Y-39548654D01*
X184437190Y-39548654D01*
X184513380Y-39510559D01*
X184551475Y-39472464D01*
X184589570Y-39396273D01*
X184627666Y-39243892D01*
X184627666Y-39053416D01*
X184589570Y-38901035D01*
X184551475Y-38824845D01*
X184513380Y-38786750D01*
X184437190Y-38748654D01*
X183675285Y-38748654D02*
X183599094Y-38748654D01*
X183522904Y-38786750D01*
X183484809Y-38824845D01*
X183446713Y-38901035D01*
X183408618Y-39053416D01*
X183408618Y-39243892D01*
X183446713Y-39396273D01*
X183484809Y-39472464D01*
X183522904Y-39510559D01*
X183599094Y-39548654D01*
X183675285Y-39548654D01*
X183751475Y-39510559D01*
X183789570Y-39472464D01*
X183827666Y-39396273D01*
X183865761Y-39243892D01*
X183865761Y-39053416D01*
X183827666Y-38901035D01*
X183789570Y-38824845D01*
X183751475Y-38786750D01*
X183675285Y-38748654D01*
X182951475Y-39091511D02*
X183027666Y-39053416D01*
X183065761Y-39015321D01*
X183103856Y-38939130D01*
X183103856Y-38901035D01*
X183065761Y-38824845D01*
X183027666Y-38786750D01*
X182951475Y-38748654D01*
X182799094Y-38748654D01*
X182722904Y-38786750D01*
X182684809Y-38824845D01*
X182646713Y-38901035D01*
X182646713Y-38939130D01*
X182684809Y-39015321D01*
X182722904Y-39053416D01*
X182799094Y-39091511D01*
X182951475Y-39091511D01*
X183027666Y-39129607D01*
X183065761Y-39167702D01*
X183103856Y-39243892D01*
X183103856Y-39396273D01*
X183065761Y-39472464D01*
X183027666Y-39510559D01*
X182951475Y-39548654D01*
X182799094Y-39548654D01*
X182722904Y-39510559D01*
X182684809Y-39472464D01*
X182646713Y-39396273D01*
X182646713Y-39243892D01*
X182684809Y-39167702D01*
X182722904Y-39129607D01*
X182799094Y-39091511D01*
X173096142Y-54858654D02*
X173553285Y-54858654D01*
X173324713Y-54858654D02*
X173324713Y-54058654D01*
X173400904Y-54172940D01*
X173477094Y-54249130D01*
X173553285Y-54287226D01*
X172334237Y-54858654D02*
X172791380Y-54858654D01*
X172562809Y-54858654D02*
X172562809Y-54058654D01*
X172638999Y-54172940D01*
X172715189Y-54249130D01*
X172791380Y-54287226D01*
X171610428Y-54058654D02*
X171991380Y-54058654D01*
X172029475Y-54439607D01*
X171991380Y-54401511D01*
X171915189Y-54363416D01*
X171724713Y-54363416D01*
X171648523Y-54401511D01*
X171610428Y-54439607D01*
X171572332Y-54515797D01*
X171572332Y-54706273D01*
X171610428Y-54782464D01*
X171648523Y-54820559D01*
X171724713Y-54858654D01*
X171915189Y-54858654D01*
X171991380Y-54820559D01*
X172029475Y-54782464D01*
X173362809Y-51518654D02*
X173286618Y-51518654D01*
X173210428Y-51556750D01*
X173172332Y-51594845D01*
X173134237Y-51671035D01*
X173096142Y-51823416D01*
X173096142Y-52013892D01*
X173134237Y-52166273D01*
X173172332Y-52242464D01*
X173210428Y-52280559D01*
X173286618Y-52318654D01*
X173362809Y-52318654D01*
X173438999Y-52280559D01*
X173477094Y-52242464D01*
X173515189Y-52166273D01*
X173553285Y-52013892D01*
X173553285Y-51823416D01*
X173515189Y-51671035D01*
X173477094Y-51594845D01*
X173438999Y-51556750D01*
X173362809Y-51518654D01*
X172600904Y-51518654D02*
X172524713Y-51518654D01*
X172448523Y-51556750D01*
X172410428Y-51594845D01*
X172372332Y-51671035D01*
X172334237Y-51823416D01*
X172334237Y-52013892D01*
X172372332Y-52166273D01*
X172410428Y-52242464D01*
X172448523Y-52280559D01*
X172524713Y-52318654D01*
X172600904Y-52318654D01*
X172677094Y-52280559D01*
X172715189Y-52242464D01*
X172753285Y-52166273D01*
X172791380Y-52013892D01*
X172791380Y-51823416D01*
X172753285Y-51671035D01*
X172715189Y-51594845D01*
X172677094Y-51556750D01*
X172600904Y-51518654D01*
X172029475Y-51594845D02*
X171991380Y-51556750D01*
X171915189Y-51518654D01*
X171724713Y-51518654D01*
X171648523Y-51556750D01*
X171610428Y-51594845D01*
X171572332Y-51671035D01*
X171572332Y-51747226D01*
X171610428Y-51861511D01*
X172067570Y-52318654D01*
X171572332Y-52318654D01*
X184437190Y-36278654D02*
X184360999Y-36278654D01*
X184284809Y-36316750D01*
X184246713Y-36354845D01*
X184208618Y-36431035D01*
X184170523Y-36583416D01*
X184170523Y-36773892D01*
X184208618Y-36926273D01*
X184246713Y-37002464D01*
X184284809Y-37040559D01*
X184360999Y-37078654D01*
X184437190Y-37078654D01*
X184513380Y-37040559D01*
X184551475Y-37002464D01*
X184589570Y-36926273D01*
X184627666Y-36773892D01*
X184627666Y-36583416D01*
X184589570Y-36431035D01*
X184551475Y-36354845D01*
X184513380Y-36316750D01*
X184437190Y-36278654D01*
X183675285Y-36278654D02*
X183599094Y-36278654D01*
X183522904Y-36316750D01*
X183484809Y-36354845D01*
X183446713Y-36431035D01*
X183408618Y-36583416D01*
X183408618Y-36773892D01*
X183446713Y-36926273D01*
X183484809Y-37002464D01*
X183522904Y-37040559D01*
X183599094Y-37078654D01*
X183675285Y-37078654D01*
X183751475Y-37040559D01*
X183789570Y-37002464D01*
X183827666Y-36926273D01*
X183865761Y-36773892D01*
X183865761Y-36583416D01*
X183827666Y-36431035D01*
X183789570Y-36354845D01*
X183751475Y-36316750D01*
X183675285Y-36278654D01*
X182722904Y-36278654D02*
X182875285Y-36278654D01*
X182951475Y-36316750D01*
X182989570Y-36354845D01*
X183065761Y-36469130D01*
X183103856Y-36621511D01*
X183103856Y-36926273D01*
X183065761Y-37002464D01*
X183027666Y-37040559D01*
X182951475Y-37078654D01*
X182799094Y-37078654D01*
X182722904Y-37040559D01*
X182684809Y-37002464D01*
X182646713Y-36926273D01*
X182646713Y-36735797D01*
X182684809Y-36659607D01*
X182722904Y-36621511D01*
X182799094Y-36583416D01*
X182951475Y-36583416D01*
X183027666Y-36621511D01*
X183065761Y-36659607D01*
X183103856Y-36735797D01*
X173362809Y-61678654D02*
X173286618Y-61678654D01*
X173210428Y-61716750D01*
X173172332Y-61754845D01*
X173134237Y-61831035D01*
X173096142Y-61983416D01*
X173096142Y-62173892D01*
X173134237Y-62326273D01*
X173172332Y-62402464D01*
X173210428Y-62440559D01*
X173286618Y-62478654D01*
X173362809Y-62478654D01*
X173438999Y-62440559D01*
X173477094Y-62402464D01*
X173515189Y-62326273D01*
X173553285Y-62173892D01*
X173553285Y-61983416D01*
X173515189Y-61831035D01*
X173477094Y-61754845D01*
X173438999Y-61716750D01*
X173362809Y-61678654D01*
X172334237Y-62478654D02*
X172791380Y-62478654D01*
X172562809Y-62478654D02*
X172562809Y-61678654D01*
X172638999Y-61792940D01*
X172715189Y-61869130D01*
X172791380Y-61907226D01*
X171838999Y-61678654D02*
X171762809Y-61678654D01*
X171686618Y-61716750D01*
X171648523Y-61754845D01*
X171610428Y-61831035D01*
X171572332Y-61983416D01*
X171572332Y-62173892D01*
X171610428Y-62326273D01*
X171648523Y-62402464D01*
X171686618Y-62440559D01*
X171762809Y-62478654D01*
X171838999Y-62478654D01*
X171915189Y-62440559D01*
X171953285Y-62402464D01*
X171991380Y-62326273D01*
X172029475Y-62173892D01*
X172029475Y-61983416D01*
X171991380Y-61831035D01*
X171953285Y-61754845D01*
X171915189Y-61716750D01*
X171838999Y-61678654D01*
X184170523Y-62478654D02*
X184627666Y-62478654D01*
X184399094Y-62478654D02*
X184399094Y-61678654D01*
X184475285Y-61792940D01*
X184551475Y-61869130D01*
X184627666Y-61907226D01*
X183675285Y-61678654D02*
X183599094Y-61678654D01*
X183522904Y-61716750D01*
X183484809Y-61754845D01*
X183446713Y-61831035D01*
X183408618Y-61983416D01*
X183408618Y-62173892D01*
X183446713Y-62326273D01*
X183484809Y-62402464D01*
X183522904Y-62440559D01*
X183599094Y-62478654D01*
X183675285Y-62478654D01*
X183751475Y-62440559D01*
X183789570Y-62402464D01*
X183827666Y-62326273D01*
X183865761Y-62173892D01*
X183865761Y-61983416D01*
X183827666Y-61831035D01*
X183789570Y-61754845D01*
X183751475Y-61716750D01*
X183675285Y-61678654D01*
X182722904Y-61945321D02*
X182722904Y-62478654D01*
X182913380Y-61640559D02*
X183103856Y-62211988D01*
X182608618Y-62211988D01*
X184437190Y-46438654D02*
X184360999Y-46438654D01*
X184284809Y-46476750D01*
X184246713Y-46514845D01*
X184208618Y-46591035D01*
X184170523Y-46743416D01*
X184170523Y-46933892D01*
X184208618Y-47086273D01*
X184246713Y-47162464D01*
X184284809Y-47200559D01*
X184360999Y-47238654D01*
X184437190Y-47238654D01*
X184513380Y-47200559D01*
X184551475Y-47162464D01*
X184589570Y-47086273D01*
X184627666Y-46933892D01*
X184627666Y-46743416D01*
X184589570Y-46591035D01*
X184551475Y-46514845D01*
X184513380Y-46476750D01*
X184437190Y-46438654D01*
X183408618Y-47238654D02*
X183865761Y-47238654D01*
X183637190Y-47238654D02*
X183637190Y-46438654D01*
X183713380Y-46552940D01*
X183789570Y-46629130D01*
X183865761Y-46667226D01*
X183141951Y-46438654D02*
X182608618Y-46438654D01*
X182951475Y-47238654D01*
X173254856Y-38856750D02*
X173331047Y-38818654D01*
X173445333Y-38818654D01*
X173559618Y-38856750D01*
X173635809Y-38932940D01*
X173673904Y-39009130D01*
X173711999Y-39161511D01*
X173711999Y-39275797D01*
X173673904Y-39428178D01*
X173635809Y-39504369D01*
X173559618Y-39580559D01*
X173445333Y-39618654D01*
X173369142Y-39618654D01*
X173254856Y-39580559D01*
X173216761Y-39542464D01*
X173216761Y-39275797D01*
X173369142Y-39275797D01*
X172873904Y-39618654D02*
X172873904Y-38818654D01*
X172416761Y-39618654D01*
X172416761Y-38818654D01*
X172035809Y-39618654D02*
X172035809Y-38818654D01*
X171845333Y-38818654D01*
X171731047Y-38856750D01*
X171654856Y-38932940D01*
X171616761Y-39009130D01*
X171578666Y-39161511D01*
X171578666Y-39275797D01*
X171616761Y-39428178D01*
X171654856Y-39504369D01*
X171731047Y-39580559D01*
X171845333Y-39618654D01*
X172035809Y-39618654D01*
X173362809Y-46438654D02*
X173286618Y-46438654D01*
X173210428Y-46476750D01*
X173172332Y-46514845D01*
X173134237Y-46591035D01*
X173096142Y-46743416D01*
X173096142Y-46933892D01*
X173134237Y-47086273D01*
X173172332Y-47162464D01*
X173210428Y-47200559D01*
X173286618Y-47238654D01*
X173362809Y-47238654D01*
X173438999Y-47200559D01*
X173477094Y-47162464D01*
X173515189Y-47086273D01*
X173553285Y-46933892D01*
X173553285Y-46743416D01*
X173515189Y-46591035D01*
X173477094Y-46514845D01*
X173438999Y-46476750D01*
X173362809Y-46438654D01*
X172829475Y-46438654D02*
X172334237Y-46438654D01*
X172600904Y-46743416D01*
X172486618Y-46743416D01*
X172410428Y-46781511D01*
X172372332Y-46819607D01*
X172334237Y-46895797D01*
X172334237Y-47086273D01*
X172372332Y-47162464D01*
X172410428Y-47200559D01*
X172486618Y-47238654D01*
X172715189Y-47238654D01*
X172791380Y-47200559D01*
X172829475Y-47162464D01*
X171572332Y-47238654D02*
X172029475Y-47238654D01*
X171800904Y-47238654D02*
X171800904Y-46438654D01*
X171877094Y-46552940D01*
X171953285Y-46629130D01*
X172029475Y-46667226D01*
X173096142Y-59938654D02*
X173553285Y-59938654D01*
X173324713Y-59938654D02*
X173324713Y-59138654D01*
X173400904Y-59252940D01*
X173477094Y-59329130D01*
X173553285Y-59367226D01*
X172334237Y-59938654D02*
X172791380Y-59938654D01*
X172562809Y-59938654D02*
X172562809Y-59138654D01*
X172638999Y-59252940D01*
X172715189Y-59329130D01*
X172791380Y-59367226D01*
X171572332Y-59938654D02*
X172029475Y-59938654D01*
X171800904Y-59938654D02*
X171800904Y-59138654D01*
X171877094Y-59252940D01*
X171953285Y-59329130D01*
X172029475Y-59367226D01*
X173178665Y-37078654D02*
X173445332Y-36697702D01*
X173635808Y-37078654D02*
X173635808Y-36278654D01*
X173331046Y-36278654D01*
X173254856Y-36316750D01*
X173216761Y-36354845D01*
X173178665Y-36431035D01*
X173178665Y-36545321D01*
X173216761Y-36621511D01*
X173254856Y-36659607D01*
X173331046Y-36697702D01*
X173635808Y-36697702D01*
X172873904Y-36850083D02*
X172492951Y-36850083D01*
X172950094Y-37078654D02*
X172683427Y-36278654D01*
X172416761Y-37078654D01*
X172226285Y-36278654D02*
X172035808Y-37078654D01*
X171883427Y-36507226D01*
X171731046Y-37078654D01*
X171540570Y-36278654D01*
X173629475Y-43898654D02*
X173362809Y-44698654D01*
X173096142Y-43898654D01*
X172372332Y-44622464D02*
X172410428Y-44660559D01*
X172524713Y-44698654D01*
X172600904Y-44698654D01*
X172715189Y-44660559D01*
X172791380Y-44584369D01*
X172829475Y-44508178D01*
X172867570Y-44355797D01*
X172867570Y-44241511D01*
X172829475Y-44089130D01*
X172791380Y-44012940D01*
X172715189Y-43936750D01*
X172600904Y-43898654D01*
X172524713Y-43898654D01*
X172410428Y-43936750D01*
X172372332Y-43974845D01*
X171572332Y-44622464D02*
X171610428Y-44660559D01*
X171724713Y-44698654D01*
X171800904Y-44698654D01*
X171915189Y-44660559D01*
X171991380Y-44584369D01*
X172029475Y-44508178D01*
X172067570Y-44355797D01*
X172067570Y-44241511D01*
X172029475Y-44089130D01*
X171991380Y-44012940D01*
X171915189Y-43936750D01*
X171800904Y-43898654D01*
X171724713Y-43898654D01*
X171610428Y-43936750D01*
X171572332Y-43974845D01*
X184437190Y-54048654D02*
X184360999Y-54048654D01*
X184284809Y-54086750D01*
X184246713Y-54124845D01*
X184208618Y-54201035D01*
X184170523Y-54353416D01*
X184170523Y-54543892D01*
X184208618Y-54696273D01*
X184246713Y-54772464D01*
X184284809Y-54810559D01*
X184360999Y-54848654D01*
X184437190Y-54848654D01*
X184513380Y-54810559D01*
X184551475Y-54772464D01*
X184589570Y-54696273D01*
X184627666Y-54543892D01*
X184627666Y-54353416D01*
X184589570Y-54201035D01*
X184551475Y-54124845D01*
X184513380Y-54086750D01*
X184437190Y-54048654D01*
X183865761Y-54124845D02*
X183827666Y-54086750D01*
X183751475Y-54048654D01*
X183560999Y-54048654D01*
X183484809Y-54086750D01*
X183446713Y-54124845D01*
X183408618Y-54201035D01*
X183408618Y-54277226D01*
X183446713Y-54391511D01*
X183903856Y-54848654D01*
X183408618Y-54848654D01*
X182722904Y-54315321D02*
X182722904Y-54848654D01*
X182913380Y-54010559D02*
X183103856Y-54581988D01*
X182608618Y-54581988D01*
X173362809Y-48978654D02*
X173286618Y-48978654D01*
X173210428Y-49016750D01*
X173172332Y-49054845D01*
X173134237Y-49131035D01*
X173096142Y-49283416D01*
X173096142Y-49473892D01*
X173134237Y-49626273D01*
X173172332Y-49702464D01*
X173210428Y-49740559D01*
X173286618Y-49778654D01*
X173362809Y-49778654D01*
X173438999Y-49740559D01*
X173477094Y-49702464D01*
X173515189Y-49626273D01*
X173553285Y-49473892D01*
X173553285Y-49283416D01*
X173515189Y-49131035D01*
X173477094Y-49054845D01*
X173438999Y-49016750D01*
X173362809Y-48978654D01*
X172791380Y-49054845D02*
X172753285Y-49016750D01*
X172677094Y-48978654D01*
X172486618Y-48978654D01*
X172410428Y-49016750D01*
X172372332Y-49054845D01*
X172334237Y-49131035D01*
X172334237Y-49207226D01*
X172372332Y-49321511D01*
X172829475Y-49778654D01*
X172334237Y-49778654D01*
X171953285Y-49778654D02*
X171800904Y-49778654D01*
X171724713Y-49740559D01*
X171686618Y-49702464D01*
X171610428Y-49588178D01*
X171572332Y-49435797D01*
X171572332Y-49131035D01*
X171610428Y-49054845D01*
X171648523Y-49016750D01*
X171724713Y-48978654D01*
X171877094Y-48978654D01*
X171953285Y-49016750D01*
X171991380Y-49054845D01*
X172029475Y-49131035D01*
X172029475Y-49321511D01*
X171991380Y-49397702D01*
X171953285Y-49435797D01*
X171877094Y-49473892D01*
X171724713Y-49473892D01*
X171648523Y-49435797D01*
X171610428Y-49397702D01*
X171572332Y-49321511D01*
X184170523Y-41396750D02*
X184246714Y-41358654D01*
X184361000Y-41358654D01*
X184475285Y-41396750D01*
X184551476Y-41472940D01*
X184589571Y-41549130D01*
X184627666Y-41701511D01*
X184627666Y-41815797D01*
X184589571Y-41968178D01*
X184551476Y-42044369D01*
X184475285Y-42120559D01*
X184361000Y-42158654D01*
X184284809Y-42158654D01*
X184170523Y-42120559D01*
X184132428Y-42082464D01*
X184132428Y-41815797D01*
X184284809Y-41815797D01*
X183789571Y-42158654D02*
X183789571Y-41358654D01*
X183332428Y-42158654D01*
X183332428Y-41358654D01*
X182951476Y-42158654D02*
X182951476Y-41358654D01*
X182761000Y-41358654D01*
X182646714Y-41396750D01*
X182570523Y-41472940D01*
X182532428Y-41549130D01*
X182494333Y-41701511D01*
X182494333Y-41815797D01*
X182532428Y-41968178D01*
X182570523Y-42044369D01*
X182646714Y-42120559D01*
X182761000Y-42158654D01*
X182951476Y-42158654D01*
X184437190Y-49048654D02*
X184360999Y-49048654D01*
X184284809Y-49086750D01*
X184246713Y-49124845D01*
X184208618Y-49201035D01*
X184170523Y-49353416D01*
X184170523Y-49543892D01*
X184208618Y-49696273D01*
X184246713Y-49772464D01*
X184284809Y-49810559D01*
X184360999Y-49848654D01*
X184437190Y-49848654D01*
X184513380Y-49810559D01*
X184551475Y-49772464D01*
X184589570Y-49696273D01*
X184627666Y-49543892D01*
X184627666Y-49353416D01*
X184589570Y-49201035D01*
X184551475Y-49124845D01*
X184513380Y-49086750D01*
X184437190Y-49048654D01*
X183865761Y-49124845D02*
X183827666Y-49086750D01*
X183751475Y-49048654D01*
X183560999Y-49048654D01*
X183484809Y-49086750D01*
X183446713Y-49124845D01*
X183408618Y-49201035D01*
X183408618Y-49277226D01*
X183446713Y-49391511D01*
X183903856Y-49848654D01*
X183408618Y-49848654D01*
X182913380Y-49048654D02*
X182837190Y-49048654D01*
X182760999Y-49086750D01*
X182722904Y-49124845D01*
X182684809Y-49201035D01*
X182646713Y-49353416D01*
X182646713Y-49543892D01*
X182684809Y-49696273D01*
X182722904Y-49772464D01*
X182760999Y-49810559D01*
X182837190Y-49848654D01*
X182913380Y-49848654D01*
X182989570Y-49810559D01*
X183027666Y-49772464D01*
X183065761Y-49696273D01*
X183103856Y-49543892D01*
X183103856Y-49353416D01*
X183065761Y-49201035D01*
X183027666Y-49124845D01*
X182989570Y-49086750D01*
X182913380Y-49048654D01*
X184437190Y-51548654D02*
X184360999Y-51548654D01*
X184284809Y-51586750D01*
X184246713Y-51624845D01*
X184208618Y-51701035D01*
X184170523Y-51853416D01*
X184170523Y-52043892D01*
X184208618Y-52196273D01*
X184246713Y-52272464D01*
X184284809Y-52310559D01*
X184360999Y-52348654D01*
X184437190Y-52348654D01*
X184513380Y-52310559D01*
X184551475Y-52272464D01*
X184589570Y-52196273D01*
X184627666Y-52043892D01*
X184627666Y-51853416D01*
X184589570Y-51701035D01*
X184551475Y-51624845D01*
X184513380Y-51586750D01*
X184437190Y-51548654D01*
X183865761Y-51624845D02*
X183827666Y-51586750D01*
X183751475Y-51548654D01*
X183560999Y-51548654D01*
X183484809Y-51586750D01*
X183446713Y-51624845D01*
X183408618Y-51701035D01*
X183408618Y-51777226D01*
X183446713Y-51891511D01*
X183903856Y-52348654D01*
X183408618Y-52348654D01*
X183103856Y-51624845D02*
X183065761Y-51586750D01*
X182989570Y-51548654D01*
X182799094Y-51548654D01*
X182722904Y-51586750D01*
X182684809Y-51624845D01*
X182646713Y-51701035D01*
X182646713Y-51777226D01*
X182684809Y-51891511D01*
X183141951Y-52348654D01*
X182646713Y-52348654D01*
D11*
X186990000Y-65926750D02*
X169210000Y-65926750D01*
X186990000Y-32906750D02*
X186990000Y-65926750D01*
X169210000Y-65926750D02*
X169210000Y-32906750D01*
X169210000Y-32906750D02*
X186990000Y-32906750D01*
%TD*%
D12*
%TO.C,U1*%
X185720000Y-36716750D03*
X185720000Y-39256750D03*
X185720000Y-41796750D03*
X185720000Y-44336750D03*
X185720000Y-46876750D03*
X185720000Y-49416750D03*
X185720000Y-51956750D03*
X185720000Y-54496750D03*
X185720000Y-57036750D03*
X185720000Y-59576750D03*
X185720000Y-62116750D03*
X185720000Y-64656750D03*
X170480000Y-64656750D03*
X170480000Y-62116750D03*
X170480000Y-59576750D03*
X170480000Y-57036750D03*
X170480000Y-54496750D03*
X170480000Y-51956750D03*
X170480000Y-49416750D03*
X170480000Y-46876750D03*
X170480000Y-44336750D03*
X170480000Y-41796750D03*
X170480000Y-39256750D03*
X170480000Y-36716750D03*
X183180000Y-59576750D03*
X180640000Y-59576750D03*
X178100000Y-59576750D03*
%TD*%
M02*
