%TF.GenerationSoftware,KiCad,Pcbnew,(6.0.7-1)-1*%
%TF.CreationDate,2022-10-16T21:29:02-07:00*%
%TF.ProjectId,karn-left,6b61726e-2d6c-4656-9674-2e6b69636164,rev?*%
%TF.SameCoordinates,Original*%
%TF.FileFunction,Soldermask,Top*%
%TF.FilePolarity,Negative*%
%FSLAX46Y46*%
G04 Gerber Fmt 4.6, Leading zero omitted, Abs format (unit mm)*
G04 Created by KiCad (PCBNEW (6.0.7-1)-1) date 2022-10-16 21:29:02*
%MOMM*%
%LPD*%
G01*
G04 APERTURE LIST*
%ADD10C,1.320800*%
%ADD11R,1.256900X1.041400*%
%ADD12R,0.750000X1.000000*%
%ADD13C,1.701800*%
%ADD14C,3.429000*%
%ADD15C,2.282000*%
%ADD16C,1.752600*%
%ADD17C,0.900000*%
%ADD18R,1.000000X0.800000*%
%ADD19R,0.700000X1.500000*%
G04 APERTURE END LIST*
D10*
%TO.C,JST1*%
X162799999Y-59639206D03*
X164800001Y-59639206D03*
%TD*%
D11*
%TO.C,RSW1*%
X161072851Y-45500000D03*
X166927149Y-45500000D03*
X161072851Y-42500000D03*
X166927149Y-42500000D03*
%TD*%
D12*
%TO.C,D31*%
X140700000Y-80644600D03*
X140700000Y-78552400D03*
%TD*%
%TO.C,D24*%
X85200000Y-63146100D03*
X85200000Y-61053900D03*
%TD*%
%TO.C,D21*%
X140700000Y-63146100D03*
X140700000Y-61053900D03*
%TD*%
%TO.C,D14*%
X85200000Y-45646100D03*
X85200000Y-43553900D03*
%TD*%
%TO.C,D42*%
X154000000Y-90153900D03*
X154000000Y-92246100D03*
%TD*%
%TO.C,D26*%
X61800000Y-68046100D03*
X61800000Y-65953900D03*
%TD*%
%TO.C,D35*%
X67469430Y-80646100D03*
X67469430Y-78553900D03*
%TD*%
%TO.C,D43*%
X127746341Y-86544574D03*
X127746341Y-88636774D03*
%TD*%
%TO.C,D41*%
X175529717Y-101231686D03*
X175529717Y-103323886D03*
%TD*%
%TO.C,D33*%
X103700000Y-80646100D03*
X103700000Y-78553900D03*
%TD*%
%TO.C,D22*%
X122200000Y-63044600D03*
X122200000Y-60952400D03*
%TD*%
%TO.C,D11*%
X140800000Y-45646100D03*
X140800000Y-43553900D03*
%TD*%
%TO.C,D13*%
X103800000Y-45646100D03*
X103800000Y-43553900D03*
%TD*%
%TO.C,D34*%
X85200000Y-80646100D03*
X85200000Y-78553900D03*
%TD*%
%TO.C,D12*%
X122300000Y-45646100D03*
X122300000Y-43553900D03*
%TD*%
%TO.C,D23*%
X103700000Y-63146100D03*
X103700000Y-61053900D03*
%TD*%
%TO.C,D32*%
X122200000Y-80746100D03*
X122200000Y-78653900D03*
%TD*%
%TO.C,D15*%
X67598338Y-45646100D03*
X67598338Y-43553900D03*
%TD*%
%TO.C,D25*%
X66700000Y-63146100D03*
X66700000Y-61053900D03*
%TD*%
D13*
%TO.C,SW24*%
X89000000Y-57500000D03*
X100000000Y-57500000D03*
D14*
X94500000Y-57500000D03*
D15*
X94500000Y-63400000D03*
X89500000Y-61300000D03*
%TD*%
D13*
%TO.C,SW22*%
X137000000Y-57500000D03*
D14*
X131500000Y-57500000D03*
D13*
X126000000Y-57500000D03*
D15*
X131500000Y-63400000D03*
X126500000Y-61300000D03*
%TD*%
D14*
%TO.C,SW43*%
X131500000Y-97500000D03*
D13*
X131500000Y-103000000D03*
X131500000Y-92000000D03*
D15*
X125600000Y-97500000D03*
X127700000Y-92500000D03*
%TD*%
D14*
%TO.C,SW12*%
X131500000Y-40000000D03*
D13*
X126000000Y-40000000D03*
X137000000Y-40000000D03*
D15*
X131500000Y-45900000D03*
X126500000Y-43800000D03*
%TD*%
D14*
%TO.C,SW13*%
X113000000Y-40000000D03*
D13*
X107500000Y-40000000D03*
X118500000Y-40000000D03*
D15*
X113000000Y-45900000D03*
X108000000Y-43800000D03*
%TD*%
D13*
%TO.C,SW26*%
X58000256Y-63000000D03*
D14*
X58000256Y-57500000D03*
D13*
X58000256Y-52000000D03*
D15*
X63900256Y-57500000D03*
X61800256Y-62500000D03*
%TD*%
D16*
%TO.C,U1*%
X185720000Y-36716750D03*
X185720000Y-39256750D03*
X185720000Y-41796750D03*
X185720000Y-44336750D03*
X185720000Y-46876750D03*
X185720000Y-49416750D03*
X185720000Y-51956750D03*
X185720000Y-54496750D03*
X185720000Y-57036750D03*
X185720000Y-59576750D03*
X185720000Y-62116750D03*
X185720000Y-64656750D03*
X170480000Y-64656750D03*
X170480000Y-62116750D03*
X170480000Y-59576750D03*
X170480000Y-57036750D03*
X170480000Y-54496750D03*
X170480000Y-51956750D03*
X170480000Y-49416750D03*
X170480000Y-46876750D03*
X170480000Y-44336750D03*
X170480000Y-41796750D03*
X170480000Y-39256750D03*
X170480000Y-36716750D03*
X183180000Y-59576750D03*
X180640000Y-59576750D03*
X178100000Y-59576750D03*
%TD*%
D13*
%TO.C,SW21*%
X144500000Y-57500000D03*
X155500000Y-57500000D03*
D14*
X150000000Y-57500000D03*
D15*
X150000000Y-63400000D03*
X145000000Y-61300000D03*
%TD*%
D13*
%TO.C,SW34*%
X89000000Y-75000000D03*
X100000000Y-75000000D03*
D14*
X94500000Y-75000000D03*
D15*
X94500000Y-80900000D03*
X89500000Y-78800000D03*
%TD*%
D14*
%TO.C,SW31*%
X150000000Y-75000000D03*
D13*
X155500000Y-75000000D03*
X144500000Y-75000000D03*
D15*
X150000000Y-80900000D03*
X145000000Y-78800000D03*
%TD*%
D13*
%TO.C,SW25*%
X70500000Y-57500000D03*
D14*
X76000000Y-57500000D03*
D13*
X81500000Y-57500000D03*
D15*
X76000000Y-63400000D03*
X71000000Y-61300000D03*
%TD*%
D13*
%TO.C,SW42*%
X155939347Y-96459638D03*
D14*
X153879011Y-101559149D03*
D13*
X151818675Y-106658660D03*
D15*
X148408626Y-99348970D03*
X152228745Y-95499725D03*
%TD*%
D13*
%TO.C,SW41*%
X169109402Y-116884645D03*
X176180066Y-108458157D03*
D14*
X172644734Y-112671401D03*
D15*
X168125072Y-108878954D03*
X172947703Y-106398586D03*
%TD*%
D13*
%TO.C,SW23*%
X107500000Y-57500000D03*
D14*
X113000000Y-57500000D03*
D13*
X118500000Y-57500000D03*
D15*
X113000000Y-63400000D03*
X108000000Y-61300000D03*
%TD*%
D13*
%TO.C,SW14*%
X89000000Y-40000000D03*
D14*
X94500000Y-40000000D03*
D13*
X100000000Y-40000000D03*
D15*
X94500000Y-45900000D03*
X89500000Y-43800000D03*
%TD*%
D13*
%TO.C,SW33*%
X107500000Y-75000000D03*
X118500000Y-75000000D03*
D14*
X113000000Y-75000000D03*
D15*
X113000000Y-80900000D03*
X108000000Y-78800000D03*
%TD*%
D13*
%TO.C,SW35*%
X81500000Y-75000000D03*
X70500000Y-75000000D03*
D14*
X76000000Y-75000000D03*
D15*
X76000000Y-80900000D03*
X71000000Y-78800000D03*
%TD*%
D14*
%TO.C,SW32*%
X131500000Y-75000000D03*
D13*
X137000000Y-75000000D03*
X126000000Y-75000000D03*
D15*
X131500000Y-80900000D03*
X126500000Y-78800000D03*
%TD*%
D17*
%TO.C,SW_POWER1*%
X162600000Y-34670000D03*
X165600000Y-34670000D03*
D18*
X167750000Y-33570000D03*
X167750000Y-35780000D03*
X160450000Y-35780000D03*
X160450000Y-33570000D03*
D19*
X166350000Y-36430000D03*
X163350000Y-36430000D03*
X161850000Y-36430000D03*
%TD*%
D14*
%TO.C,SW15*%
X76000000Y-40000000D03*
D13*
X70500000Y-40000000D03*
X81500000Y-40000000D03*
D15*
X76000000Y-45900000D03*
X71000000Y-43800000D03*
%TD*%
D13*
%TO.C,SW11*%
X144500000Y-40000000D03*
X155500000Y-40000000D03*
D14*
X150000000Y-40000000D03*
D15*
X150000000Y-45900000D03*
X145000000Y-43800000D03*
%TD*%
M02*
