M48
; DRILL file {KiCad (6.0.7-1)-1} date Sunday, October 16, 2022 at 09:29:10 PM
; FORMAT={-:-/ absolute / inch / decimal}
; #@! TF.CreationDate,2022-10-16T21:29:10-07:00
; #@! TF.GenerationSoftware,Kicad,Pcbnew,(6.0.7-1)-1
; #@! TF.FileFunction,Plated,1,2,PTH
FMAT,2
INCH
; #@! TA.AperFunction,Plated,PTH,ViaDrill
T1C0.0157
; #@! TA.AperFunction,Plated,PTH,ComponentDrill
T2C0.0320
; #@! TA.AperFunction,Plated,PTH,ComponentDrill
T3C0.0430
; #@! TA.AperFunction,Plated,PTH,ComponentDrill
T4C0.0598
%
G90
G05
T1
X2.8695Y-2.323
X3.5958Y-2.3177
X4.3237Y-2.3208
X5.0554Y-2.3252
X5.7841Y-2.3194
X6.4323Y-1.5172
X6.4331Y-1.8701
T2
X6.4094Y-2.348
X6.4882Y-2.348
T3
X6.7118Y-1.4455
X6.7118Y-1.5455
X6.7118Y-1.6455
X6.7118Y-1.7455
X6.7118Y-1.8455
X6.7118Y-1.9455
X6.7118Y-2.0455
X6.7118Y-2.1455
X6.7118Y-2.2455
X6.7118Y-2.3455
X6.7118Y-2.4455
X6.7118Y-2.5455
X7.0118Y-2.3455
X7.1118Y-2.3455
X7.2118Y-2.3455
X7.3118Y-1.4455
X7.3118Y-1.5455
X7.3118Y-1.6455
X7.3118Y-1.7455
X7.3118Y-1.8455
X7.3118Y-1.9455
X7.3118Y-2.0455
X7.3118Y-2.1455
X7.3118Y-2.2455
X7.3118Y-2.3455
X7.3118Y-2.4455
X7.3118Y-2.5455
T4
X2.4331Y-2.4606
X2.5158Y-2.2638
X2.7953Y-1.7244
X2.7953Y-2.4134
X2.7953Y-3.1024
X2.9921Y-1.8071
X2.9921Y-2.4961
X2.9921Y-3.185
X3.5236Y-1.7244
X3.5236Y-2.4134
X3.5236Y-3.1024
X3.7205Y-1.8071
X3.7205Y-2.4961
X3.7205Y-3.185
X4.252Y-1.7244
X4.252Y-2.4134
X4.252Y-3.1024
X4.4488Y-1.8071
X4.4488Y-2.4961
X4.4488Y-3.185
X4.9449Y-3.8386
X4.9803Y-1.7244
X4.9803Y-2.4134
X4.9803Y-3.1024
X5.0276Y-3.6417
X5.1772Y-1.8071
X5.1772Y-2.4961
X5.1772Y-3.185
X5.7087Y-1.7244
X5.7087Y-2.4134
X5.7087Y-3.1024
X5.8429Y-3.9114
X5.9055Y-1.8071
X5.9055Y-2.4961
X5.9055Y-3.185
X5.9933Y-3.7598
X6.6191Y-4.2866
X6.809Y-4.1889
T0
M30
