M48
; DRILL file {KiCad (6.0.7-1)-1} date Sunday, October 16, 2022 at 09:29:10 PM
; FORMAT={-:-/ absolute / inch / decimal}
; #@! TF.CreationDate,2022-10-16T21:29:10-07:00
; #@! TF.GenerationSoftware,Kicad,Pcbnew,(6.0.7-1)-1
; #@! TF.FileFunction,NonPlated,1,2,NPTH
FMAT,2
INCH
; #@! TA.AperFunction,NonPlated,NPTH,ComponentDrill
T1C0.0354
; #@! TA.AperFunction,NonPlated,NPTH,ComponentDrill
T2C0.0670
; #@! TA.AperFunction,NonPlated,NPTH,ComponentDrill
T3C0.1350
%
G90
G05
T1
X6.4016Y-1.365
X6.5197Y-1.365
T2
X2.2835Y-2.0472
X2.2835Y-2.4803
X2.7756Y-1.5748
X2.7756Y-2.2638
X2.7756Y-2.9528
X3.2087Y-1.5748
X3.2087Y-2.2638
X3.2087Y-2.9528
X3.5039Y-1.5748
X3.5039Y-2.2638
X3.5039Y-2.9528
X3.937Y-1.5748
X3.937Y-2.2638
X3.937Y-2.9528
X4.2323Y-1.5748
X4.2323Y-2.2638
X4.2323Y-2.9528
X4.6654Y-1.5748
X4.6654Y-2.2638
X4.6654Y-2.9528
X4.9606Y-1.5748
X4.9606Y-2.2638
X4.9606Y-2.9528
X5.1772Y-3.622
X5.1772Y-4.0551
X5.3937Y-1.5748
X5.3937Y-2.2638
X5.3937Y-2.9528
X5.689Y-1.5748
X5.689Y-2.2638
X5.689Y-2.9528
X5.9771Y-4.1992
X6.122Y-1.5748
X6.122Y-2.2638
X6.122Y-2.9528
X6.1393Y-3.7976
X6.6579Y-4.6018
X6.9362Y-4.27
T3
X2.2835Y-2.2638
X2.9921Y-1.5748
X2.9921Y-2.2638
X2.9921Y-2.9528
X3.7205Y-1.5748
X3.7205Y-2.2638
X3.7205Y-2.9528
X4.4488Y-1.5748
X4.4488Y-2.2638
X4.4488Y-2.9528
X5.1772Y-1.5748
X5.1772Y-2.2638
X5.1772Y-2.9528
X5.1772Y-3.8386
X5.9055Y-1.5748
X5.9055Y-2.2638
X5.9055Y-2.9528
X6.0582Y-3.9984
X6.797Y-4.4359
T0
M30
