M48
; DRILL file {KiCad (6.0.7-1)-1} date Saturday, December 31, 2022 at 01:50:18 PM
; FORMAT={-:-/ absolute / metric / decimal}
; #@! TF.CreationDate,2022-12-31T13:50:18-08:00
; #@! TF.GenerationSoftware,Kicad,Pcbnew,(6.0.7-1)-1
; #@! TF.FileFunction,Plated,1,2,PTH
FMAT,2
METRIC
; #@! TA.AperFunction,Plated,PTH,ComponentDrill
T1C0.900
; #@! TA.AperFunction,Plated,PTH,ComponentDrill
T2C1.000
; #@! TA.AperFunction,Plated,PTH,ComponentDrill
T3C1.520
%
G90
G05
T2
X163.98Y-34.6
X163.98Y-37.14
X163.98Y-39.68
X163.98Y-42.22
X163.98Y-44.76
X163.98Y-47.3
X163.98Y-49.84
X163.98Y-52.38
X163.98Y-54.92
X163.98Y-57.46
X163.98Y-60.0
X163.98Y-62.54
X163.98Y-65.08
X163.98Y-67.62
X163.98Y-70.16
X163.98Y-72.7
X163.98Y-75.24
X163.98Y-77.78
X163.98Y-80.32
X163.98Y-82.86
X166.56Y-34.6
X166.56Y-37.14
X166.56Y-39.68
X166.56Y-42.22
X166.56Y-44.76
X166.56Y-47.3
X166.56Y-49.84
X166.56Y-52.38
X166.56Y-54.92
X166.56Y-57.46
X166.56Y-60.0
X166.56Y-62.54
X166.56Y-65.08
X166.56Y-67.62
X166.56Y-70.16
X166.56Y-72.7
X166.56Y-75.24
X166.56Y-77.78
X166.56Y-80.32
X166.56Y-82.86
X179.22Y-34.6
X179.22Y-37.14
X179.22Y-39.68
X179.22Y-42.22
X179.22Y-44.76
X179.22Y-47.3
X179.22Y-49.84
X179.22Y-52.38
X179.22Y-54.92
X179.22Y-57.46
X179.22Y-60.0
X179.22Y-62.54
X179.22Y-65.08
X179.22Y-67.62
X179.22Y-70.16
X179.22Y-72.7
X179.22Y-75.24
X179.22Y-77.78
X179.22Y-80.32
X179.22Y-82.86
X181.8Y-34.6
X181.8Y-37.14
X181.8Y-39.68
X181.8Y-42.22
X181.8Y-44.76
X181.8Y-47.3
X181.8Y-49.84
X181.8Y-52.38
X181.8Y-54.92
X181.8Y-57.46
X181.8Y-60.0
X181.8Y-62.54
X181.8Y-65.08
X181.8Y-67.62
X181.8Y-70.16
X181.8Y-72.7
X181.8Y-75.24
X181.8Y-77.78
X181.8Y-80.32
X181.8Y-82.86
T3
X61.8Y-52.5
X61.8Y-62.5
X63.9Y-57.5
X71.0Y-43.8
X71.0Y-61.3
X71.0Y-78.8
X76.0Y-45.9
X76.0Y-63.4
X76.0Y-80.9
X81.0Y-43.8
X81.0Y-61.3
X81.0Y-78.8
X89.5Y-43.8
X89.5Y-61.3
X89.5Y-78.8
X94.5Y-45.9
X94.5Y-63.4
X94.5Y-80.9
X99.5Y-43.8
X99.5Y-61.3
X99.5Y-78.8
X108.0Y-43.8
X108.0Y-61.3
X108.0Y-78.8
X113.0Y-45.9
X113.0Y-63.4
X113.0Y-80.9
X118.0Y-43.8
X118.0Y-61.3
X118.0Y-78.8
X125.6Y-97.5
X126.5Y-43.8
X126.5Y-61.3
X126.5Y-78.8
X127.7Y-92.5
X127.7Y-102.5
X131.5Y-45.9
X131.5Y-63.4
X131.5Y-80.9
X136.5Y-43.8
X136.5Y-61.3
X136.5Y-78.8
X145.0Y-43.8
X145.0Y-61.3
X145.0Y-78.8
X148.409Y-99.349
X148.483Y-104.772
X150.0Y-45.9
X150.0Y-63.4
X150.0Y-80.9
X152.229Y-95.5
X155.0Y-43.8
X155.0Y-61.3
X155.0Y-78.8
X166.52Y-114.059
X168.125Y-108.879
X172.948Y-106.399
T1
G00X175.9Y-90.1
M15
G01X175.5Y-90.1
M16
G05
G00X175.912Y-92.5
M15
G01X175.512Y-92.5
M16
G05
G00X177.0Y-94.7
M15
G01X176.6Y-94.7
M16
G05
G00X177.012Y-87.9
M15
G01X176.612Y-87.9
M16
G05
G00X181.0Y-94.7
M15
G01X180.6Y-94.7
M16
G05
G00X181.012Y-87.9
M15
G01X180.612Y-87.9
M16
G05
G00X184.0Y-94.7
M15
G01X183.6Y-94.7
M16
G05
G00X184.012Y-87.9
M15
G01X183.612Y-87.9
M16
G05
T0
M30
